<svg xmlns="http://www.w3.org/2000/svg" width="67.595" height="71.682" viewBox="0 0 67.595 71.682">
  <g id="Grupo_1028119" data-name="Grupo 1028119" transform="translate(-8.599 -5.25)">
    <g id="Grupo_1028090" data-name="Grupo 1028090" transform="translate(9.667 6.318)">
      <g id="Grupo_1028089" data-name="Grupo 1028089" transform="translate(0 0)">
        <path id="Trazado_774006" data-name="Trazado 774006" d="M0,0H47.584V63.077H0Z" transform="translate(6.469 6.47)" fill="#d7e8ff"/>
        <rect id="Rectángulo_360991" data-name="Rectángulo 360991" width="47.584" height="63.077" fill="#fff"/>
      </g>
      <path id="Trazado_774007" data-name="Trazado 774007" d="M14.641,0A14.641,14.641,0,1,1,0,14.641,14.641,14.641,0,0,1,14.641,0Z" transform="translate(36.178 20.132)" fill="#fe502d"/>
      <circle id="Elipse_8718" data-name="Elipse 8718" cx="10.371" cy="10.371" r="10.371" transform="translate(40.448 24.402)" fill="#ffc408"/>
    </g>
    <g id="Grupo_1028091" data-name="Grupo 1028091" transform="translate(8.599 5.25)">
      <path id="Trazado_773996" data-name="Trazado 773996" d="M10.735,40.279V37.247a1.068,1.068,0,0,0-2.135,0v3.033a1.068,1.068,0,1,0,2.135,0Z" transform="translate(-8.599 -17.311)"/>
      <path id="Trazado_773997" data-name="Trazado 773997" d="M22.365,17.948A1.068,1.068,0,0,0,21.3,19.017V38.539a1.068,1.068,0,0,0,1.068,1.068H46.752a1.068,1.068,0,1,0,0-2.135H23.435V19.017a1.067,1.067,0,0,0-1.07-1.069Z" transform="translate(-13.552 -10.201)"/>
      <path id="Trazado_773998" data-name="Trazado 773998" d="M38.411,98.083a1.068,1.068,0,1,0,0-2.135H22.367a1.068,1.068,0,0,0,0,2.135Z" transform="translate(-13.551 -40.617)"/>
      <path id="Trazado_773999" data-name="Trazado 773999" d="M50.54,86.583a1.068,1.068,0,1,0,0-2.135H22.364a1.068,1.068,0,1,0,0,2.135Z" transform="translate(-13.55 -36.133)"/>
      <path id="Trazado_774000" data-name="Trazado 774000" d="M38.411,75.083a1.068,1.068,0,1,0,0-2.135H22.367a1.068,1.068,0,1,0,0,2.135Z" transform="translate(-13.551 -31.648)"/>
      <path id="Trazado_774001" data-name="Trazado 774001" d="M45.3,63.583a1.068,1.068,0,1,0,0-2.135H22.364a1.068,1.068,0,1,0,0,2.135Z" transform="translate(-13.55 -27.164)"/>
      <path id="Trazado_774002" data-name="Trazado 774002" d="M9.667,32.712A1.068,1.068,0,0,0,8.6,33.78V69.4a1.068,1.068,0,0,0,1.068,1.068h5.4v5.4a1.068,1.068,0,0,0,1.068,1.068H51.69a1.068,1.068,0,1,0,0-2.135H17.2V70.465h40.05A1.068,1.068,0,0,0,58.319,69.4V56.647a14.8,14.8,0,0,0,4.331-.013V74.8h-5.4a1.068,1.068,0,0,0,0,2.135h6.467a1.068,1.068,0,0,0,1.068-1.068V56.2a15.678,15.678,0,0,0,6.143-3.374,1.068,1.068,0,1,0-1.42-1.594A13.543,13.543,0,1,1,72.62,47.18a1.068,1.068,0,1,0,1.908.96,15.553,15.553,0,0,0,1.666-7.049,15.734,15.734,0,0,0-11.408-15.1v-13.2a1.068,1.068,0,0,0-1.068-1.068h-5.4v-5.4A1.068,1.068,0,0,0,57.252,5.25H9.667A1.068,1.068,0,0,0,8.6,6.318V19.625a1.068,1.068,0,1,0,2.135,0V7.385H56.184v18.6a15.7,15.7,0,0,0,0,30.21V68.327H10.735V33.78A1.068,1.068,0,0,0,9.667,32.712ZM58.319,13.854h4.331v11.68a15.413,15.413,0,0,0-4.331,0Z" transform="translate(-8.599 -5.25)"/>
      <path id="Trazado_774003" data-name="Trazado 774003" d="M97.777,56.689A11.439,11.439,0,1,0,86.339,68.127,11.439,11.439,0,0,0,97.777,56.689Zm-20.742,0a9.3,9.3,0,1,1,9.3,9.3A9.3,9.3,0,0,1,77.035,56.689Z" transform="translate(-34.453 -20.848)"/>
      <path id="Trazado_774004" data-name="Trazado 774004" d="M32.119,33.8,37,28.916l4.4,2.415a1.067,1.067,0,0,0,1.362-.287L47.4,24.979h4.683a1.069,1.069,0,0,0,.683-.248l5.877-4.9a1.068,1.068,0,1,0-1.367-1.64L51.7,22.844H46.877a1.066,1.066,0,0,0-.848.419l-4.4,5.755-4.3-2.359a1.068,1.068,0,0,0-1.268.183l-5.451,5.45a1.068,1.068,0,0,0,1.51,1.51Z" transform="translate(-17.06 -10.201)"/>
      <path id="Trazado_774005" data-name="Trazado 774005" d="M91,52.25a1.068,1.068,0,0,0-1.068,1.068v.971a3.1,3.1,0,0,0,.051,6.2H92.02a.966.966,0,0,1,0,1.932H87.954a1.068,1.068,0,0,0,0,2.135h1.982v.966a1.068,1.068,0,0,0,2.135,0v-.971a3.1,3.1,0,1,0-.051-6.2H89.987a.966.966,0,0,1,0-1.932h4.067a1.068,1.068,0,0,0,0-2.135H92.071v-.966A1.068,1.068,0,0,0,91,52.25Z" transform="translate(-39.117 -23.577)"/>
    </g>
  </g>
</svg>
