<svg xmlns="http://www.w3.org/2000/svg" width="1328" height="432.886" viewBox="0 0 1328 432.886">
  <g id="Grupo_1028066" data-name="Grupo 1028066" transform="translate(-588.664 -1027.41)">
    <path id="Trazado_179748" data-name="Trazado 179748" d="M588.664,1027.41v346.443c390.952-59.594,814.178,17.022,1328,32.334V1059.745C1525.712,1119.339,1102.486,1042.723,588.664,1027.41Z" fill="#fcf6d8"/>
    <path id="Trazado_179749" data-name="Trazado 179749" d="M822.51,1166.3c36.631-38.17,65.6-77.28,86.616-116.82l-2.624-.178c-19.514,36.834-47.308,75.93-86.171,116.426-51.974,54.157-78.157,107.129-77.824,157.443.223,33.415,12.108,65.051,35.3,94.5.86-.046,1.723-.085,2.583-.13C722.314,1343.693,736.472,1255.951,822.51,1166.3Z" transform="translate(0 -5.58)" fill="#fff"/>
    <path id="Trazado_179750" data-name="Trazado 179750" d="M993.806,1097.041c9.687-9.6,19.7-19.529,29.226-29.2,2.244-2.277,4.4-4.547,6.5-6.814l-2.544-.188c-1.985,2.136-4.007,4.274-6.121,6.42-9.519,9.66-19.532,19.587-29.215,29.184-85.951,85.2-174.828,173.31-119.036,261.311q19.572,30.873,61.845,59.419l3.1.02q-42.971-28.8-62.634-59.84C819.464,1269.871,908.094,1182.009,993.806,1097.041Z" transform="translate(0 -8.522)" fill="#fff"/>
    <path id="Trazado_179751" data-name="Trazado 179751" d="M706.045,1288.012c6.083-43.443-5.261-81.974-34.68-117.795-19.146-23.313-46.1-45.737-82.7-68.236v1.965c35.5,22.018,61.734,43.973,80.461,66.774,58.722,71.5,46.7,154.113-39,267.866-1.549,2.056-3.017,4.108-4.447,6.158.944-.123,1.893-.234,2.838-.355,1.254-1.776,2.536-3.553,3.878-5.336C675.788,1381.453,699.879,1332.046,706.045,1288.012Z" transform="translate(0 -19.009)" fill="#fff"/>
    <path id="Trazado_179752" data-name="Trazado 179752" d="M1655.3,1312.225c-24.775-76.586,22.387-153.69,133.64-221.592q-1.977.161-3.955.317c-45.739,28.019-80.54,57.551-103.912,88.25-33.193,43.6-42.673,88.426-28.178,133.236,16.333,50.491,63.607,99.594,136.711,142q19.44,11.277,41.166,21.835l3.3.141C1738.206,1430.138,1675.069,1373.352,1655.3,1312.225Z" transform="translate(0 -16.117)" fill="#fff"/>
    <path id="Trazado_179753" data-name="Trazado 179753" d="M1816.033,1282.97c-5.871,49.266,27.238,102.234,100.631,160.35v-2.334c-71.648-57.23-103.98-109.412-98.2-157.936,5.435-45.608,43.81-84.391,98.2-119.479v-2.033C1860.992,1197.119,1821.571,1236.5,1816.033,1282.97Z" transform="translate(0 -34.192)" fill="#fff"/>
    <path id="Trazado_179754" data-name="Trazado 179754" d="M1474.579,1289.369c-8.065-46.081,23.526-89.173,93.893-128.077,38.791-21.446,72.169-42.018,100.516-61.973-1.013.029-2.028.054-3.041.081-28.155,19.684-61.12,39.937-99.247,61.016-70.869,39.181-102.681,82.607-94.549,129.068,7.4,42.259,51.713,104.471,203.342,180.812,1.332.082,2.66.166,3.993.247C1526.53,1393.953,1481.975,1331.623,1474.579,1289.369Z" transform="translate(0 -18.331)" fill="#fff"/>
  </g>
</svg>
