<svg xmlns="http://www.w3.org/2000/svg" xmlns:xlink="http://www.w3.org/1999/xlink" width="766.013" height="239.228" viewBox="0 0 766.013 239.228">
  <defs>
    <clipPath id="clip-path">
      <rect id="Rectángulo_358969" data-name="Rectángulo 358969" width="766.013" height="239.228" fill="none"/>
    </clipPath>
    <filter id="Trazado_762389" x="22.302" y="22.304" width="200.624" height="200.624" filterUnits="userSpaceOnUse">
      <feOffset dx="3" dy="3" input="SourceAlpha"/>
      <feGaussianBlur stdDeviation="3" result="blur"/>
      <feFlood flood-opacity="0.161"/>
      <feComposite operator="in" in2="blur"/>
      <feComposite in="SourceGraphic"/>
    </filter>
    <clipPath id="clip-path-2">
      <path id="Trazado_762412" data-name="Trazado 762412" d="M67.171,67.173a74.167,74.167,0,1,0,52.443-21.722A74.166,74.166,0,0,0,67.171,67.173" fill="none"/>
    </clipPath>
    <linearGradient id="linear-gradient" x1="-0.031" y1="1.015" x2="-0.027" y2="1.015" gradientUnits="objectBoundingBox">
      <stop offset="0" stop-color="#fdfdfd"/>
      <stop offset="0.397" stop-color="#f5f5f5"/>
      <stop offset="1" stop-color="#e0e0e0"/>
    </linearGradient>
    <filter id="Trazado_762415" x="285.815" y="22.302" width="200.624" height="200.624" filterUnits="userSpaceOnUse">
      <feOffset dx="3" dy="3" input="SourceAlpha"/>
      <feGaussianBlur stdDeviation="3" result="blur-2"/>
      <feFlood flood-opacity="0.161"/>
      <feComposite operator="in" in2="blur-2"/>
      <feComposite in="SourceGraphic"/>
    </filter>
    <clipPath id="clip-path-4">
      <path id="Trazado_762439" data-name="Trazado 762439" d="M330.684,67.171a74.167,74.167,0,1,0,52.443-21.722,74.165,74.165,0,0,0-52.443,21.722" fill="none"/>
    </clipPath>
    <linearGradient id="linear-gradient-2" x1="-1.202" y1="1.015" x2="-1.197" y2="1.015" xlink:href="#linear-gradient"/>
    <filter id="Trazado_762442" x="549.087" y="22.302" width="200.624" height="200.624" filterUnits="userSpaceOnUse">
      <feOffset dx="3" dy="3" input="SourceAlpha"/>
      <feGaussianBlur stdDeviation="3" result="blur-3"/>
      <feFlood flood-opacity="0.161"/>
      <feComposite operator="in" in2="blur-3"/>
      <feComposite in="SourceGraphic"/>
    </filter>
    <clipPath id="clip-path-5">
      <path id="Trazado_762461" data-name="Trazado 762461" d="M593.957,67.171A74.166,74.166,0,1,0,646.4,45.449a74.163,74.163,0,0,0-52.442,21.722" fill="none"/>
    </clipPath>
    <linearGradient id="linear-gradient-3" x1="-2.371" y1="1.015" x2="-2.367" y2="1.015" xlink:href="#linear-gradient"/>
  </defs>
  <g id="Grupo_1034317" data-name="Grupo 1034317" transform="translate(-416.993 -1606.446)">
    <g id="Grupo_1024270" data-name="Grupo 1024270" transform="translate(416.993 1606.446)">
      <g id="Grupo_1024269" data-name="Grupo 1024269" clip-path="url(#clip-path)">
        <path id="Trazado_762388" data-name="Trazado 762388" d="M35.265,35.268a118.822,118.822,0,0,1,35.4-24.459v-.357a119.671,119.671,0,0,0,0,218.329v-.359a119.253,119.253,0,0,1-35.4-193.154M229.819,73.05a119.962,119.962,0,0,0-61.264-62.6V10.8a119.346,119.346,0,0,1,0,217.626v.357A119.721,119.721,0,0,0,229.819,73.05" fill="#fe502d"/>
        <g transform="matrix(1, 0, 0, 1, 0, 0)" filter="url(#Trazado_762389)">
          <path id="Trazado_762389-2" data-name="Trazado 762389" d="M210.926,119.616A91.312,91.312,0,1,1,119.614,28.3a91.312,91.312,0,0,1,91.312,91.312" fill="#fe502d"/>
        </g>
        <path id="Trazado_762390" data-name="Trazado 762390" d="M18.939,162.154a108.692,108.692,0,0,0,17.849,28.74l-1.62,1.62A111.691,111.691,0,0,1,16.834,76.189a112.32,112.32,0,0,1,6.155-12.363,1.142,1.142,0,0,1,1.979,1.141,109.879,109.879,0,0,0-6.029,12.112,109.594,109.594,0,0,0,0,85.075" fill="#fe502d"/>
        <path id="Trazado_762391" data-name="Trazado 762391" d="M120.765,230.034a1.143,1.143,0,0,1-1.142,1.142,111.219,111.219,0,0,1-72.918-27.125l1.62-1.618a108.933,108.933,0,0,0,71.3,26.459,1.142,1.142,0,0,1,1.142,1.142" fill="#fe502d"/>
        <path id="Trazado_762392" data-name="Trazado 762392" d="M31.465,70.042a1.122,1.122,0,0,0,.572.155,1.142,1.142,0,0,0,.989-.569l.041-.071a1.143,1.143,0,1,0-1.977-1.146l-.04.071a1.14,1.14,0,0,0,.415,1.56" fill="#fe502d"/>
        <path id="Trazado_762393" data-name="Trazado 762393" d="M145.409,23.013l.155.042a1.179,1.179,0,0,0,.3.039,1.142,1.142,0,0,0,.3-2.245l-.16-.043a1.142,1.142,0,0,0-.589,2.207" fill="#fe502d"/>
        <path id="Trazado_762394" data-name="Trazado 762394" d="M157.792,27.209l.149.062a1.142,1.142,0,1,0,.877-2.109l-.153-.064a1.142,1.142,0,0,0-.873,2.111" fill="#fe502d"/>
        <path id="Trazado_762395" data-name="Trazado 762395" d="M198.971,58.815a1.142,1.142,0,1,0,1.81-1.393l-.1-.129a1.142,1.142,0,0,0-1.811,1.392Z" fill="#fe502d"/>
        <path id="Trazado_762396" data-name="Trazado 762396" d="M132.58,20.486l.161.021a1.257,1.257,0,0,0,.149.01,1.142,1.142,0,0,0,.147-2.275l-.163-.021a1.142,1.142,0,1,0-.294,2.265" fill="#fe502d"/>
        <path id="Trazado_762397" data-name="Trazado 762397" d="M180.4,40.246l.129.1a1.142,1.142,0,0,0,1.392-1.811l-.13-.1a1.142,1.142,0,1,0-1.391,1.812" fill="#fe502d"/>
        <path id="Trazado_762398" data-name="Trazado 762398" d="M119.527,19.657h.164a1.142,1.142,0,0,0,0-2.284h-.164a1.142,1.142,0,0,0,0,2.284" fill="#fe502d"/>
        <path id="Trazado_762399" data-name="Trazado 762399" d="M169.525,32.983l.141.081a1.142,1.142,0,1,0,1.142-1.978L170.666,31a1.142,1.142,0,0,0-1.141,1.979" fill="#fe502d"/>
        <path id="Trazado_762400" data-name="Trazado 762400" d="M190.346,48.983a1.142,1.142,0,0,0,1.614-1.615l-.114-.116a1.143,1.143,0,0,0-1.617,1.616Z" fill="#fe502d"/>
        <path id="Trazado_762401" data-name="Trazado 762401" d="M80.839,27.363a1.131,1.131,0,0,0,.438-.088l.149-.061a1.142,1.142,0,0,0-.872-2.112l-.154.064a1.142,1.142,0,0,0,.439,2.2" fill="#fe502d"/>
        <path id="Trazado_762402" data-name="Trazado 762402" d="M58,40.589a1.139,1.139,0,0,0,.7-.238l.127-.1a1.142,1.142,0,1,0-1.391-1.812l-.131.1a1.142,1.142,0,0,0,.7,2.047" fill="#fe502d"/>
        <path id="Trazado_762403" data-name="Trazado 762403" d="M48.067,49.326a1.14,1.14,0,0,0,.808-.335l.117-.117a1.142,1.142,0,0,0-1.619-1.612l-.114.114a1.142,1.142,0,0,0,.808,1.95" fill="#fe502d"/>
        <path id="Trazado_762404" data-name="Trazado 762404" d="M38.649,59.034a1.142,1.142,0,0,0,1.6-.211l.1-.127a1.143,1.143,0,0,0-1.81-1.4l-.1.132a1.142,1.142,0,0,0,.211,1.6" fill="#fe502d"/>
        <path id="Trazado_762405" data-name="Trazado 762405" d="M106.327,20.518a1.08,1.08,0,0,0,.15-.01l.159-.021a1.142,1.142,0,1,0-.291-2.265l-.165.021a1.142,1.142,0,0,0,.147,2.275" fill="#fe502d"/>
        <path id="Trazado_762406" data-name="Trazado 762406" d="M93.356,23.1a1.177,1.177,0,0,0,.3-.039l.156-.042a1.142,1.142,0,0,0-.589-2.207l-.159.042a1.143,1.143,0,0,0,.3,2.246" fill="#fe502d"/>
        <path id="Trazado_762407" data-name="Trazado 762407" d="M68.982,33.224a1.14,1.14,0,0,0,.571-.154l.141-.081a1.142,1.142,0,0,0-1.143-1.978l-.142.082a1.142,1.142,0,0,0,.573,2.131" fill="#fe502d"/>
        <path id="Trazado_762408" data-name="Trazado 762408" d="M220.715,117.24a2.376,2.376,0,1,0,2.376,2.377,2.379,2.379,0,0,0-2.376-2.377" fill="#fe502d"/>
        <path id="Trazado_762409" data-name="Trazado 762409" d="M275.571,118.475H228.227a7.616,7.616,0,0,0-6.642-6.4,101.458,101.458,0,0,0-7.767-32.256,102.615,102.615,0,0,0-5.64-11.332h0l-.041-.07a1.142,1.142,0,0,0-1.977,1.143l.041.069v0a100.32,100.32,0,0,1,5.513,11.079,99.134,99.134,0,0,1,7.586,31.449,7.6,7.6,0,0,0,0,14.925,99.884,99.884,0,0,1-99.687,92.5,1.142,1.142,0,1,0,0,2.284,102.17,102.17,0,0,0,101.972-94.7,7.616,7.616,0,0,0,6.642-6.4h47.344a1.142,1.142,0,1,0,0-2.284m-54.856,6.454a5.313,5.313,0,1,1,5.312-5.312,5.319,5.319,0,0,1-5.312,5.312" fill="#fe502d"/>
        <path id="Trazado_762410" data-name="Trazado 762410" d="M46.623,197.508a4.895,4.895,0,1,1-4.9-4.895,4.895,4.895,0,0,1,4.9,4.895" fill="#fe502d"/>
        <path id="Trazado_762411" data-name="Trazado 762411" d="M43.777,197.508a2.048,2.048,0,1,1-2.048-2.048,2.048,2.048,0,0,1,2.048,2.048" fill="#fff"/>
      </g>
    </g>
    <g id="Grupo_1024272" data-name="Grupo 1024272" transform="translate(416.993 1606.446)">
      <g id="Grupo_1024271" data-name="Grupo 1024271" clip-path="url(#clip-path-2)">
        <rect id="Rectángulo_358970" data-name="Rectángulo 358970" width="225.131" height="225.131" transform="translate(-39.577 123.237) rotate(-45)" fill="url(#linear-gradient)"/>
      </g>
    </g>
    <g id="Grupo_1024274" data-name="Grupo 1024274" transform="translate(416.993 1606.446)">
      <g id="Grupo_1024273" data-name="Grupo 1024273" clip-path="url(#clip-path)">
        <path id="Trazado_762413" data-name="Trazado 762413" d="M68.994,69a71.587,71.587,0,1,1,0,101.239A71.587,71.587,0,0,1,68.994,69" fill="#f3f4f5"/>
        <path id="Trazado_762414" data-name="Trazado 762414" d="M429.692,229.82a119.738,119.738,0,0,0,65.124-153.1l-.254.251a119.352,119.352,0,0,1-154.637,153.86l-.251.251a119.98,119.98,0,0,0,90.018-1.264M263.839,119.614A119.357,119.357,0,0,1,425.149,7.943l.252-.253A119.684,119.684,0,0,0,270.99,161.325l.255-.253a118.633,118.633,0,0,1-7.406-41.458" fill="#ffca00"/>
        <g transform="matrix(1, 0, 0, 1, 0, 0)" filter="url(#Trazado_762415)">
          <path id="Trazado_762415-2" data-name="Trazado 762415" d="M474.439,119.614A91.312,91.312,0,1,1,383.127,28.3a91.312,91.312,0,0,1,91.312,91.312" fill="#ffca00"/>
        </g>
        <path id="Trazado_762416" data-name="Trazado 762416" d="M338.51,14.012a113.576,113.576,0,0,1,36.459-8.729V7.572A112.007,112.007,0,0,0,303.7,40.184a112.535,112.535,0,0,0-17.711,22.974,1.142,1.142,0,1,1-1.974-1.149,115.1,115.1,0,0,1,54.5-48" fill="#ffca00"/>
        <path id="Trazado_762417" data-name="Trazado 762417" d="M481.992,63.856a1.142,1.142,0,0,1-1.56-.418,112.837,112.837,0,0,0-53.577-47.323,111.315,111.315,0,0,0-35.57-8.543V5.283a114.306,114.306,0,0,1,72.889,33.285A114.811,114.811,0,0,1,482.41,62.3a1.142,1.142,0,0,1-.418,1.56" fill="#ffca00"/>
        <path id="Trazado_762418" data-name="Trazado 762418" d="M471.693,68.482a1.142,1.142,0,1,0-1.977,1.143l.039.069a1.142,1.142,0,1,0,1.98-1.14Z" fill="#ffca00"/>
        <path id="Trazado_762419" data-name="Trazado 762419" d="M479.574,89.173a1.142,1.142,0,0,0-.762,1.424l.041.134a1.142,1.142,0,1,0,2.188-.656l-.043-.14a1.143,1.143,0,0,0-1.424-.762" fill="#ffca00"/>
        <path id="Trazado_762420" data-name="Trazado 762420" d="M477,79.048l-.059-.136a1.142,1.142,0,0,0-2.093.914l.055.128a1.142,1.142,0,0,0,2.1-.906" fill="#ffca00"/>
        <path id="Trazado_762421" data-name="Trazado 762421" d="M481.5,101.756l.025.141a1.143,1.143,0,0,0,1.123.94,1.079,1.079,0,0,0,.2-.018,1.142,1.142,0,0,0,.923-1.325l-.026-.142a1.142,1.142,0,1,0-2.248.4" fill="#ffca00"/>
        <path id="Trazado_762422" data-name="Trazado 762422" d="M383.208,219.572h-.081a99.883,99.883,0,0,1-99.685-92.493,7.6,7.6,0,0,0,0-14.926,99.121,99.121,0,0,1,7.587-31.45,100.259,100.259,0,0,1,5.656-11.328,1.142,1.142,0,1,0-1.974-1.148,103.148,103.148,0,0,0-5.787,11.585,101.467,101.467,0,0,0-7.766,32.258,7.6,7.6,0,0,0,0,15.092,102.162,102.162,0,0,0,101.97,94.694h.081a1.142,1.142,0,1,0,0-2.284M276.713,119.616a5.313,5.313,0,1,1,5.312,5.312,5.318,5.318,0,0,1-5.312-5.312" fill="#ffca00"/>
        <path id="Trazado_762423" data-name="Trazado 762423" d="M431.33,207.209l-.136.075a1.142,1.142,0,1,0,1.1,2l.139-.076a1.142,1.142,0,0,0-1.1-2" fill="#ffca00"/>
        <path id="Trazado_762424" data-name="Trazado 762424" d="M395.731,218.79l-.152.019a1.142,1.142,0,0,0,.138,2.276,1.109,1.109,0,0,0,.14-.009l.16-.02a1.142,1.142,0,0,0-.286-2.266" fill="#ffca00"/>
        <path id="Trazado_762425" data-name="Trazado 762425" d="M419.98,212.558l-.141.056a1.142,1.142,0,0,0,.836,2.126l.15-.06a1.142,1.142,0,1,0-.845-2.122" fill="#ffca00"/>
        <path id="Trazado_762426" data-name="Trazado 762426" d="M441.917,200.476l-.128.094a1.142,1.142,0,1,0,1.344,1.846l.126-.091a1.142,1.142,0,0,0-1.342-1.849" fill="#ffca00"/>
        <path id="Trazado_762427" data-name="Trazado 762427" d="M408.053,216.444l-.148.038a1.142,1.142,0,1,0,.564,2.213l.156-.039a1.142,1.142,0,0,0-.572-2.212" fill="#ffca00"/>
        <path id="Trazado_762428" data-name="Trazado 762428" d="M451.57,192.468l-.113.1a1.143,1.143,0,0,0,1.563,1.667l.116-.109a1.142,1.142,0,0,0-1.566-1.663" fill="#ffca00"/>
        <path id="Trazado_762429" data-name="Trazado 762429" d="M482.668,137.47a1.144,1.144,0,0,0-1.335.91l-.028.15a1.142,1.142,0,0,0,2.243.432l.03-.157a1.142,1.142,0,0,0-.91-1.335" fill="#ffca00"/>
        <path id="Trazado_762430" data-name="Trazado 762430" d="M475.108,161.643a1.142,1.142,0,0,0-1.518.55l-.065.138a1.142,1.142,0,0,0,2.065.976l.068-.146a1.141,1.141,0,0,0-.55-1.518" fill="#ffca00"/>
        <path id="Trazado_762431" data-name="Trazado 762431" d="M479.655,149.8a1.143,1.143,0,0,0-1.439.734l-.048.146a1.142,1.142,0,0,0,.731,1.441,1.156,1.156,0,0,0,.355.057,1.141,1.141,0,0,0,1.085-.788l.049-.151a1.142,1.142,0,0,0-.733-1.439" fill="#ffca00"/>
        <path id="Trazado_762432" data-name="Trazado 762432" d="M469.124,172.832a1.143,1.143,0,0,0-1.578.349l-.084.132a1.142,1.142,0,0,0,1.926,1.228l.085-.132a1.144,1.144,0,0,0-.349-1.577" fill="#ffca00"/>
        <path id="Trazado_762433" data-name="Trazado 762433" d="M461.769,183.172a1.142,1.142,0,0,0-1.608.153l-.1.117a1.142,1.142,0,0,0,1.755,1.462l.1-.124a1.142,1.142,0,0,0-.153-1.608" fill="#ffca00"/>
        <path id="Trazado_762434" data-name="Trazado 762434" d="M284.4,119.616a2.376,2.376,0,1,0-2.376,2.376,2.379,2.379,0,0,0,2.376-2.376" fill="#ffca00"/>
        <path id="Trazado_762435" data-name="Trazado 762435" d="M484.228,117.24a2.376,2.376,0,1,0,2.376,2.377,2.379,2.379,0,0,0-2.376-2.377" fill="#ffca00"/>
        <path id="Trazado_762436" data-name="Trazado 762436" d="M538.844,118.475h-47.1a7.609,7.609,0,0,0-7.288-6.45,1.128,1.128,0,0,0-.919.028,7.6,7.6,0,0,0,0,15.126,1.084,1.084,0,0,0,.426.111c.023,0,.046,0,.068,0a1.148,1.148,0,0,0,.43-.084,7.609,7.609,0,0,0,7.286-6.449h47.1a1.142,1.142,0,1,0,0-2.284m-54.615,6.454a5.313,5.313,0,1,1,5.312-5.312,5.319,5.319,0,0,1-5.312,5.312" fill="#ffca00"/>
        <path id="Trazado_762437" data-name="Trazado 762437" d="M388.022,6.425a4.895,4.895,0,1,1-4.895-4.9,4.895,4.895,0,0,1,4.895,4.9" fill="#ffca00"/>
        <path id="Trazado_762438" data-name="Trazado 762438" d="M385.175,6.425a2.048,2.048,0,1,1-2.048-2.048,2.048,2.048,0,0,1,2.048,2.048" fill="#fff"/>
      </g>
    </g>
    <g id="Grupo_1024276" data-name="Grupo 1024276" transform="translate(416.993 1606.446)">
      <g id="Grupo_1024275" data-name="Grupo 1024275" clip-path="url(#clip-path-4)">
        <rect id="Rectángulo_358972" data-name="Rectángulo 358972" width="225.131" height="225.131" transform="translate(223.936 123.235) rotate(-45)" fill="url(#linear-gradient-2)"/>
      </g>
    </g>
    <path id="Trazado_762440" data-name="Trazado 762440" d="M332.508,68.994a71.587,71.587,0,1,1,0,101.239,71.587,71.587,0,0,1,0-101.239" transform="translate(416.993 1606.446)" fill="#f3f4f5"/>
    <path id="Trazado_762441" data-name="Trazado 762441" d="M758.1,76.749l-.252.253a119.353,119.353,0,0,1-153.5,154.272l-.252.252a119.675,119.675,0,0,0,154-154.777M688.45,7.954,688.7,7.7a119.679,119.679,0,0,0-154,154.78l.253-.254A119.353,119.353,0,0,1,688.45,7.954" transform="translate(416.993 1606.446)" fill="#2d54fe"/>
    <g transform="matrix(1, 0, 0, 1, 416.99, 1606.45)" filter="url(#Trazado_762442)">
      <path id="Trazado_762442-2" data-name="Trazado 762442" d="M737.711,119.614A91.312,91.312,0,1,1,646.4,28.3a91.312,91.312,0,0,1,91.312,91.312" fill="#2d54fe"/>
    </g>
    <path id="Trazado_762443" data-name="Trazado 762443" d="M717.665,202.454l1.62,1.62a111.24,111.24,0,0,1-72.895,27.1,1.142,1.142,0,1,1,0-2.284,108.935,108.935,0,0,0,71.275-26.438" transform="translate(416.993 1606.446)" fill="#2d54fe"/>
    <path id="Trazado_762444" data-name="Trazado 762444" d="M757.953,119.613a111.218,111.218,0,0,1-27.128,72.928l-1.62-1.62A109.406,109.406,0,0,0,747.077,77.075a110.084,110.084,0,0,0-5.963-12,1.142,1.142,0,1,1,1.98-1.138,112.293,112.293,0,0,1,6.088,12.248,110.9,110.9,0,0,1,8.771,43.427" transform="translate(416.993 1606.446)" fill="#2d54fe"/>
    <path id="Trazado_762445" data-name="Trazado 762445" d="M735.024,68.588a102.314,102.314,0,0,0-177.251,0l0,0a102.979,102.979,0,0,0-5.577,11.223,101.44,101.44,0,0,0-7.766,32.252,7.6,7.6,0,0,0,.644,15.138,1.147,1.147,0,0,0,.43.083h.075a1.2,1.2,0,0,0,.419-.11,7.6,7.6,0,0,0,.716-15.027A99.126,99.126,0,0,1,554.3,80.7a100.139,100.139,0,0,1,5.453-10.975,99.078,99.078,0,0,1,7.275-10.894,100.8,100.8,0,0,1,8.69-9.9,100.032,100.032,0,0,1,157.328,20.8,1.142,1.142,0,1,0,1.979-1.141M550.61,119.611A5.313,5.313,0,1,1,545.3,114.3a5.32,5.32,0,0,1,5.312,5.312" transform="translate(416.993 1606.446)" fill="#2d54fe"/>
    <path id="Trazado_762446" data-name="Trazado 762446" d="M577.95,192.462a1.142,1.142,0,0,0-1.566,1.663l.116.109a1.142,1.142,0,1,0,1.562-1.666Z" transform="translate(416.993 1606.446)" fill="#2d54fe"/>
    <path id="Trazado_762447" data-name="Trazado 762447" d="M587.732,200.565l-.127-.092a1.142,1.142,0,0,0-1.344,1.846l.126.092a1.142,1.142,0,1,0,1.345-1.846" transform="translate(416.993 1606.446)" fill="#2d54fe"/>
    <path id="Trazado_762448" data-name="Trazado 762448" d="M551.308,150.519a1.142,1.142,0,1,0-2.173.7l.05.153a1.142,1.142,0,0,0,2.17-.712Z" transform="translate(416.993 1606.446)" fill="#2d54fe"/>
    <path id="Trazado_762449" data-name="Trazado 762449" d="M569.357,183.316a1.142,1.142,0,0,0-1.758,1.458l.1.121a1.142,1.142,0,1,0,1.758-1.459Z" transform="translate(416.993 1606.446)" fill="#2d54fe"/>
    <path id="Trazado_762450" data-name="Trazado 762450" d="M548.191,138.367a1.142,1.142,0,1,0-2.244.425l.03.157a1.142,1.142,0,0,0,2.243-.431Z" transform="translate(416.993 1606.446)" fill="#2d54fe"/>
    <path id="Trazado_762451" data-name="Trazado 762451" d="M561.976,173.174a1.142,1.142,0,1,0-1.928,1.225l.087.136a1.142,1.142,0,1,0,1.923-1.233Z" transform="translate(416.993 1606.446)" fill="#2d54fe"/>
    <path id="Trazado_762452" data-name="Trazado 762452" d="M555.931,162.181a1.142,1.142,0,0,0-2.066.974l.067.142a1.142,1.142,0,1,0,2.066-.974Z" transform="translate(416.993 1606.446)" fill="#2d54fe"/>
    <path id="Trazado_762453" data-name="Trazado 762453" d="M621.617,216.481l-.149-.038a1.142,1.142,0,1,0-.571,2.212l.154.039a1.157,1.157,0,0,0,.284.036,1.142,1.142,0,0,0,.282-2.249" transform="translate(416.993 1606.446)" fill="#2d54fe"/>
    <path id="Trazado_762454" data-name="Trazado 762454" d="M598.325,207.279l-.134-.074a1.142,1.142,0,1,0-1.1,2l.14.077a1.142,1.142,0,0,0,1.1-2" transform="translate(416.993 1606.446)" fill="#2d54fe"/>
    <path id="Trazado_762455" data-name="Trazado 762455" d="M633.938,218.808l-.148-.018a1.142,1.142,0,1,0-.286,2.266l.162.02a1.059,1.059,0,0,0,.137.008,1.142,1.142,0,0,0,.135-2.276" transform="translate(416.993 1606.446)" fill="#2d54fe"/>
    <path id="Trazado_762456" data-name="Trazado 762456" d="M609.684,212.613l-.146-.058a1.142,1.142,0,1,0-.842,2.123l.146.058a1.142,1.142,0,1,0,.842-2.123" transform="translate(416.993 1606.446)" fill="#2d54fe"/>
    <path id="Trazado_762457" data-name="Trazado 762457" d="M646.318,221.857h.082a1.142,1.142,0,0,0,0-2.284h-.082a1.142,1.142,0,0,0,0,2.284" transform="translate(416.993 1606.446)" fill="#2d54fe"/>
    <path id="Trazado_762458" data-name="Trazado 762458" d="M542.922,119.611a2.375,2.375,0,1,0,2.376-2.376,2.379,2.379,0,0,0-2.376,2.376" transform="translate(416.993 1606.446)" fill="#2d54fe"/>
    <path id="Trazado_762459" data-name="Trazado 762459" d="M729.19,197.508a4.895,4.895,0,1,1-4.9-4.895,4.895,4.895,0,0,1,4.9,4.895" transform="translate(416.993 1606.446)" fill="#2d54fe"/>
    <path id="Trazado_762460" data-name="Trazado 762460" d="M726.344,197.508a2.048,2.048,0,1,1-2.049-2.048,2.049,2.049,0,0,1,2.049,2.048" transform="translate(416.993 1606.446)" fill="#fff"/>
    <path id="Trazado_775250" data-name="Trazado 775250" d="M0,0H766.013V239.228H0Z" transform="translate(416.993 1606.446)" fill="none"/>
    <g id="Grupo_1024280" data-name="Grupo 1024280" transform="translate(416.993 1606.446)">
      <g id="Grupo_1024279" data-name="Grupo 1024279" clip-path="url(#clip-path-5)">
        <rect id="Rectángulo_358974" data-name="Rectángulo 358974" width="225.131" height="225.131" transform="translate(487.207 123.234) rotate(-45)" fill="url(#linear-gradient-3)"/>
      </g>
    </g>
    <g id="Grupo_1024282" data-name="Grupo 1024282" transform="translate(416.993 1606.446)">
      <g id="Grupo_1024281" data-name="Grupo 1024281" clip-path="url(#clip-path)">
        <path id="Trazado_762462" data-name="Trazado 762462" d="M595.78,68.994a71.587,71.587,0,1,1,0,101.239,71.587,71.587,0,0,1,0-101.239" fill="#f3f4f5"/>
      </g>
    </g>
    <path id="Trazado_775251" data-name="Trazado 775251" d="M47.555,10.07h-4.5v3.047h5.281V15H40.711V3.625H48.32v1.9H43.055V8.234h4.5Zm4.969,2.172,1.57-5.7h2.359L53.6,15H51.445L48.594,6.547h2.359Zm8.711,2.914a4.15,4.15,0,0,1-3.027-1.141,4.054,4.054,0,0,1-1.168-3.039v-.219a5.106,5.106,0,0,1,.492-2.277,3.612,3.612,0,0,1,1.395-1.547,3.914,3.914,0,0,1,2.059-.543,3.508,3.508,0,0,1,2.73,1.094,4.444,4.444,0,0,1,1,3.1v.922H59.328a2.1,2.1,0,0,0,.66,1.328,2,2,0,0,0,1.395.5,2.437,2.437,0,0,0,2.039-.945l1.109,1.242a3.389,3.389,0,0,1-1.375,1.121A4.511,4.511,0,0,1,61.234,15.156Zm-.258-6.945a1.411,1.411,0,0,0-1.09.455,2.357,2.357,0,0,0-.535,1.3h3.141V9.788a1.681,1.681,0,0,0-.406-1.165A1.456,1.456,0,0,0,60.977,8.211ZM68.07,6.547l.07.977a2.951,2.951,0,0,1,2.43-1.133,2.453,2.453,0,0,1,2,.789,3.682,3.682,0,0,1,.672,2.359V15H70.984V9.594a1.465,1.465,0,0,0-.312-1.043,1.4,1.4,0,0,0-1.039-.324,1.553,1.553,0,0,0-1.43.813V15H65.945V6.547Zm9.586-2.078V6.547H79.1V8.2H77.656v4.219a1.007,1.007,0,0,0,.18.672.9.9,0,0,0,.688.2,3.6,3.6,0,0,0,.664-.055v1.711a4.648,4.648,0,0,1-1.367.2,2.156,2.156,0,0,1-2.422-2.4V8.2H74.164V6.547H75.4V4.469ZM79.773,10.7a5.013,5.013,0,0,1,.484-2.242A3.546,3.546,0,0,1,81.652,6.93a4.069,4.069,0,0,1,2.113-.539,3.849,3.849,0,0,1,2.793,1.047,4.2,4.2,0,0,1,1.207,2.844l.016.578A4.418,4.418,0,0,1,86.7,13.98a4.209,4.209,0,0,1-5.832,0,4.5,4.5,0,0,1-1.09-3.187Zm2.258.16a3.16,3.16,0,0,0,.453,1.843,1.628,1.628,0,0,0,2.578.008,3.457,3.457,0,0,0,.461-2.015,3.128,3.128,0,0,0-.461-1.831,1.5,1.5,0,0,0-1.3-.649,1.474,1.474,0,0,0-1.281.646A3.516,3.516,0,0,0,82.031,10.856Z" transform="translate(473.993 1750.446)" fill="#12263f"/>
    <path id="Trazado_775252" data-name="Trazado 775252" d="M52.824,10.352h-4.5V15H45.98V3.625h7.406v1.9H48.324V8.461h4.5ZM59.23,15A2.507,2.507,0,0,1,59,14.242a2.732,2.732,0,0,1-2.133.914,3,3,0,0,1-2.059-.719A2.312,2.312,0,0,1,54,12.625a2.389,2.389,0,0,1,1-2.062,4.915,4.915,0,0,1,2.879-.727H58.91V9.352a1.393,1.393,0,0,0-.3-.937,1.183,1.183,0,0,0-.949-.352,1.345,1.345,0,0,0-.895.273.929.929,0,0,0-.324.75H54.184a2.268,2.268,0,0,1,.453-1.359,3,3,0,0,1,1.281-.98,4.669,4.669,0,0,1,1.859-.355,3.689,3.689,0,0,1,2.48.785,2.747,2.747,0,0,1,.918,2.207v3.664a4.041,4.041,0,0,0,.336,1.82V15Zm-1.867-1.57a1.945,1.945,0,0,0,.922-.223,1.462,1.462,0,0,0,.625-.6V11.156h-.844q-1.7,0-1.8,1.172l-.008.133a.9.9,0,0,0,.3.7A1.153,1.153,0,0,0,57.363,13.43Zm10.125-.766a.727.727,0,0,0-.41-.652,4.659,4.659,0,0,0-1.316-.426q-3.016-.633-3.016-2.562a2.323,2.323,0,0,1,.934-1.879,3.766,3.766,0,0,1,2.441-.754,4.053,4.053,0,0,1,2.574.758,2.388,2.388,0,0,1,.965,1.969H67.4a1.092,1.092,0,0,0-.312-.8A1.322,1.322,0,0,0,66.113,8a1.351,1.351,0,0,0-.883.258.814.814,0,0,0-.312.656.7.7,0,0,0,.355.605,3.657,3.657,0,0,0,1.2.4,9.8,9.8,0,0,1,1.422.379,2.336,2.336,0,0,1,1.789,2.273,2.2,2.2,0,0,1-.992,1.871,4.28,4.28,0,0,1-2.562.715,4.47,4.47,0,0,1-1.887-.379,3.166,3.166,0,0,1-1.293-1.039,2.414,2.414,0,0,1-.469-1.426h2.141a1.179,1.179,0,0,0,.445.922,1.766,1.766,0,0,0,1.109.32,1.635,1.635,0,0,0,.98-.246A.766.766,0,0,0,67.488,12.664Zm7.539,2.492A4.15,4.15,0,0,1,72,14.016a4.054,4.054,0,0,1-1.168-3.039v-.219a5.106,5.106,0,0,1,.492-2.277,3.612,3.612,0,0,1,1.395-1.547,3.914,3.914,0,0,1,2.059-.543,3.508,3.508,0,0,1,2.73,1.094,4.444,4.444,0,0,1,1,3.1v.922H73.121a2.1,2.1,0,0,0,.66,1.328,2,2,0,0,0,1.395.5,2.437,2.437,0,0,0,2.039-.945l1.109,1.242a3.389,3.389,0,0,1-1.375,1.121A4.511,4.511,0,0,1,75.027,15.156ZM74.77,8.211a1.411,1.411,0,0,0-1.09.455,2.357,2.357,0,0,0-.535,1.3h3.141V9.788a1.681,1.681,0,0,0-.406-1.165A1.456,1.456,0,0,0,74.77,8.211Zm9.594,4.453a.727.727,0,0,0-.41-.652,4.659,4.659,0,0,0-1.316-.426q-3.016-.633-3.016-2.562a2.323,2.323,0,0,1,.934-1.879A3.766,3.766,0,0,1,83,6.391a4.053,4.053,0,0,1,2.574.758,2.388,2.388,0,0,1,.965,1.969H84.277a1.092,1.092,0,0,0-.312-.8A1.322,1.322,0,0,0,82.988,8a1.351,1.351,0,0,0-.883.258.814.814,0,0,0-.312.656.7.7,0,0,0,.355.605,3.657,3.657,0,0,0,1.2.4,9.8,9.8,0,0,1,1.422.379,2.336,2.336,0,0,1,1.789,2.273,2.2,2.2,0,0,1-.992,1.871A4.28,4.28,0,0,1,83,15.156a4.47,4.47,0,0,1-1.887-.379,3.166,3.166,0,0,1-1.293-1.039,2.414,2.414,0,0,1-.469-1.426H81.5a1.179,1.179,0,0,0,.445.922,1.766,1.766,0,0,0,1.109.32,1.635,1.635,0,0,0,.98-.246A.766.766,0,0,0,84.363,12.664Zm7.281-1.953a5.094,5.094,0,0,1,.887-3.148,2.877,2.877,0,0,1,2.426-1.172A2.589,2.589,0,0,1,97,7.313V3h2.266V15H97.223l-.109-.9a2.657,2.657,0,0,1-2.172,1.055,2.869,2.869,0,0,1-2.395-1.176A5.258,5.258,0,0,1,91.645,10.711Zm2.258.168a3.337,3.337,0,0,0,.414,1.823,1.349,1.349,0,0,0,1.2.634A1.511,1.511,0,0,0,97,12.452V9.111a1.489,1.489,0,0,0-1.461-.884Q93.9,8.227,93.9,10.879Zm11,4.277a4.15,4.15,0,0,1-3.027-1.141,4.054,4.054,0,0,1-1.168-3.039v-.219A5.106,5.106,0,0,1,101.2,8.48a3.612,3.612,0,0,1,1.395-1.547,3.914,3.914,0,0,1,2.059-.543,3.508,3.508,0,0,1,2.73,1.094,4.444,4.444,0,0,1,1,3.1v.922H103a2.1,2.1,0,0,0,.66,1.328,2,2,0,0,0,1.395.5,2.437,2.437,0,0,0,2.039-.945l1.109,1.242a3.389,3.389,0,0,1-1.375,1.121A4.511,4.511,0,0,1,104.9,15.156Zm-.258-6.945a1.411,1.411,0,0,0-1.09.455,2.357,2.357,0,0,0-.535,1.3h3.141V9.788a1.681,1.681,0,0,0-.406-1.165A1.456,1.456,0,0,0,104.645,8.211Zm7.4,6.789h-2.266V3h2.266ZM59.578,33.156a4.15,4.15,0,0,1-3.027-1.141,4.054,4.054,0,0,1-1.168-3.039v-.219a5.106,5.106,0,0,1,.492-2.277,3.612,3.612,0,0,1,1.395-1.547,3.914,3.914,0,0,1,2.059-.543,3.508,3.508,0,0,1,2.73,1.094,4.444,4.444,0,0,1,1,3.1v.922H57.672a2.1,2.1,0,0,0,.66,1.328,2,2,0,0,0,1.395.5,2.437,2.437,0,0,0,2.039-.945l1.109,1.242A3.389,3.389,0,0,1,61.5,32.754,4.511,4.511,0,0,1,59.578,33.156Zm-.258-6.945a1.411,1.411,0,0,0-1.09.455,2.357,2.357,0,0,0-.535,1.3h3.141v-.181a1.681,1.681,0,0,0-.406-1.165A1.456,1.456,0,0,0,59.32,26.211ZM67.4,30.242l1.57-5.7h2.359L68.477,33H66.32l-2.852-8.453h2.359Zm8.711,2.914a4.15,4.15,0,0,1-3.027-1.141,4.054,4.054,0,0,1-1.168-3.039v-.219a5.106,5.106,0,0,1,.492-2.277A3.612,3.612,0,0,1,73.8,24.934a3.914,3.914,0,0,1,2.059-.543,3.508,3.508,0,0,1,2.73,1.094,4.444,4.444,0,0,1,1,3.1v.922H74.2a2.1,2.1,0,0,0,.66,1.328,2,2,0,0,0,1.395.5,2.437,2.437,0,0,0,2.039-.945l1.109,1.242a3.389,3.389,0,0,1-1.375,1.121A4.511,4.511,0,0,1,76.109,33.156Zm-.258-6.945a1.411,1.411,0,0,0-1.09.455,2.357,2.357,0,0,0-.535,1.3h3.141v-.181a1.681,1.681,0,0,0-.406-1.165A1.456,1.456,0,0,0,75.852,26.211Zm7.094-1.664.07.977a2.951,2.951,0,0,1,2.43-1.133,2.453,2.453,0,0,1,2,.789,3.682,3.682,0,0,1,.672,2.359V33H85.859V27.594a1.465,1.465,0,0,0-.312-1.043,1.4,1.4,0,0,0-1.039-.324,1.553,1.553,0,0,0-1.43.813V33H80.82V24.547Zm9.586-2.078v2.078h1.445V26.2H92.531v4.219a1.007,1.007,0,0,0,.18.672.9.9,0,0,0,.688.2,3.6,3.6,0,0,0,.664-.055v1.711a4.648,4.648,0,0,1-1.367.2,2.156,2.156,0,0,1-2.422-2.4V26.2H89.039V24.547h1.234V22.469ZM94.648,28.7a5.013,5.013,0,0,1,.484-2.242,3.546,3.546,0,0,1,1.395-1.523,4.069,4.069,0,0,1,2.113-.539,3.849,3.849,0,0,1,2.793,1.047,4.2,4.2,0,0,1,1.207,2.844l.016.578a4.418,4.418,0,0,1-1.086,3.121,4.209,4.209,0,0,1-5.832,0,4.5,4.5,0,0,1-1.09-3.187Zm2.258.16a3.16,3.16,0,0,0,.453,1.843,1.628,1.628,0,0,0,2.578.008,3.457,3.457,0,0,0,.461-2.015,3.128,3.128,0,0,0-.461-1.831,1.5,1.5,0,0,0-1.3-.649,1.474,1.474,0,0,0-1.281.646A3.516,3.516,0,0,0,96.906,28.856Z" transform="translate(720.992 1747.446)" fill="#12263f"/>
    <path id="Trazado_775253" data-name="Trazado 775253" d="M46.559,10.352h-4.5V15H39.715V3.625h7.406v1.9H42.059V8.461h4.5ZM52.965,15a2.507,2.507,0,0,1-.227-.758,2.732,2.732,0,0,1-2.133.914,3,3,0,0,1-2.059-.719,2.312,2.312,0,0,1-.816-1.812,2.389,2.389,0,0,1,1-2.062,4.915,4.915,0,0,1,2.879-.727h1.039V9.352a1.393,1.393,0,0,0-.3-.937,1.183,1.183,0,0,0-.949-.352,1.345,1.345,0,0,0-.895.273.929.929,0,0,0-.324.75H47.918a2.268,2.268,0,0,1,.453-1.359,3,3,0,0,1,1.281-.98,4.669,4.669,0,0,1,1.859-.355,3.689,3.689,0,0,1,2.48.785,2.747,2.747,0,0,1,.918,2.207v3.664a4.041,4.041,0,0,0,.336,1.82V15ZM51.1,13.43a1.945,1.945,0,0,0,.922-.223,1.462,1.462,0,0,0,.625-.6V11.156H51.8q-1.7,0-1.8,1.172l-.008.133a.9.9,0,0,0,.3.7A1.153,1.153,0,0,0,51.1,13.43Zm10.125-.766a.727.727,0,0,0-.41-.652,4.659,4.659,0,0,0-1.316-.426q-3.016-.633-3.016-2.562a2.323,2.323,0,0,1,.934-1.879,3.766,3.766,0,0,1,2.441-.754,4.053,4.053,0,0,1,2.574.758,2.388,2.388,0,0,1,.965,1.969H61.137a1.092,1.092,0,0,0-.312-.8A1.322,1.322,0,0,0,59.848,8a1.351,1.351,0,0,0-.883.258.814.814,0,0,0-.312.656.7.7,0,0,0,.355.605,3.657,3.657,0,0,0,1.2.4,9.8,9.8,0,0,1,1.422.379,2.336,2.336,0,0,1,1.789,2.273,2.2,2.2,0,0,1-.992,1.871,4.28,4.28,0,0,1-2.562.715,4.47,4.47,0,0,1-1.887-.379,3.166,3.166,0,0,1-1.293-1.039,2.414,2.414,0,0,1-.469-1.426h2.141a1.179,1.179,0,0,0,.445.922,1.766,1.766,0,0,0,1.109.32,1.635,1.635,0,0,0,.98-.246A.766.766,0,0,0,61.223,12.664Zm7.539,2.492a4.15,4.15,0,0,1-3.027-1.141,4.054,4.054,0,0,1-1.168-3.039v-.219a5.106,5.106,0,0,1,.492-2.277,3.612,3.612,0,0,1,1.395-1.547,3.914,3.914,0,0,1,2.059-.543,3.508,3.508,0,0,1,2.73,1.094,4.444,4.444,0,0,1,1,3.1v.922H66.855a2.1,2.1,0,0,0,.66,1.328,2,2,0,0,0,1.395.5,2.437,2.437,0,0,0,2.039-.945l1.109,1.242a3.389,3.389,0,0,1-1.375,1.121A4.511,4.511,0,0,1,68.762,15.156ZM68.5,8.211a1.411,1.411,0,0,0-1.09.455,2.357,2.357,0,0,0-.535,1.3H70.02V9.788a1.681,1.681,0,0,0-.406-1.165A1.456,1.456,0,0,0,68.5,8.211Zm8.648,2.5a5.094,5.094,0,0,1,.887-3.148,2.877,2.877,0,0,1,2.426-1.172,2.589,2.589,0,0,1,2.039.922V3H84.77V15H82.73l-.109-.9a2.657,2.657,0,0,1-2.172,1.055,2.869,2.869,0,0,1-2.395-1.176A5.258,5.258,0,0,1,77.152,10.711Zm2.258.168a3.337,3.337,0,0,0,.414,1.823,1.349,1.349,0,0,0,1.2.634,1.511,1.511,0,0,0,1.477-.884V9.111a1.489,1.489,0,0,0-1.461-.884Q79.41,8.227,79.41,10.879Zm11,4.277a4.15,4.15,0,0,1-3.027-1.141,4.054,4.054,0,0,1-1.168-3.039v-.219a5.106,5.106,0,0,1,.492-2.277A3.612,3.612,0,0,1,88.1,6.934a3.914,3.914,0,0,1,2.059-.543,3.508,3.508,0,0,1,2.73,1.094,4.444,4.444,0,0,1,1,3.1v.922H88.5a2.1,2.1,0,0,0,.66,1.328,2,2,0,0,0,1.395.5,2.437,2.437,0,0,0,2.039-.945l1.109,1.242a3.389,3.389,0,0,1-1.375,1.121A4.511,4.511,0,0,1,90.41,15.156Zm-.258-6.945a1.411,1.411,0,0,0-1.09.455,2.357,2.357,0,0,0-.535,1.3h3.141V9.788a1.681,1.681,0,0,0-.406-1.165A1.456,1.456,0,0,0,90.152,8.211ZM38.578,33.156a4.15,4.15,0,0,1-3.027-1.141,4.054,4.054,0,0,1-1.168-3.039v-.219a5.106,5.106,0,0,1,.492-2.277,3.612,3.612,0,0,1,1.395-1.547,3.914,3.914,0,0,1,2.059-.543,3.508,3.508,0,0,1,2.73,1.094,4.444,4.444,0,0,1,1,3.1v.922H36.672a2.1,2.1,0,0,0,.66,1.328,2,2,0,0,0,1.395.5,2.437,2.437,0,0,0,2.039-.945l1.109,1.242A3.389,3.389,0,0,1,40.5,32.754,4.511,4.511,0,0,1,38.578,33.156Zm-.258-6.945a1.411,1.411,0,0,0-1.09.455,2.357,2.357,0,0,0-.535,1.3h3.141v-.181a1.681,1.681,0,0,0-.406-1.165A1.456,1.456,0,0,0,38.32,26.211Zm7.406-1.664v8.914a3.024,3.024,0,0,1-.742,2.176,2.821,2.821,0,0,1-2.141.777,4.591,4.591,0,0,1-1.117-.133V34.492a4.238,4.238,0,0,0,.711.07q1.023,0,1.023-1.086v-8.93Zm-2.445-2.187a1.112,1.112,0,0,1,.34-.836,1.47,1.47,0,0,1,1.852,0,1.2,1.2,0,0,1-.008,1.68,1.448,1.448,0,0,1-1.836,0A1.108,1.108,0,0,1,43.281,22.359Zm8.1,10.8a4.15,4.15,0,0,1-3.027-1.141,4.054,4.054,0,0,1-1.168-3.039v-.219a5.106,5.106,0,0,1,.492-2.277,3.612,3.612,0,0,1,1.395-1.547,3.914,3.914,0,0,1,2.059-.543,3.508,3.508,0,0,1,2.73,1.094,4.444,4.444,0,0,1,1,3.1v.922H49.477a2.1,2.1,0,0,0,.66,1.328,2,2,0,0,0,1.395.5,2.437,2.437,0,0,0,2.039-.945l1.109,1.242A3.389,3.389,0,0,1,53.3,32.754,4.511,4.511,0,0,1,51.383,33.156Zm-.258-6.945a1.411,1.411,0,0,0-1.09.455,2.357,2.357,0,0,0-.535,1.3h3.141v-.181a1.681,1.681,0,0,0-.406-1.165A1.456,1.456,0,0,0,51.125,26.211Zm8.531,5.125a1.481,1.481,0,0,0,1.016-.344,1.2,1.2,0,0,0,.406-.914H63.2a2.9,2.9,0,0,1-.469,1.574,3.093,3.093,0,0,1-1.262,1.109,3.949,3.949,0,0,1-1.77.395A3.67,3.67,0,0,1,56.836,32a4.56,4.56,0,0,1-1.047-3.184v-.148a4.508,4.508,0,0,1,1.039-3.117,3.627,3.627,0,0,1,2.852-1.164,3.555,3.555,0,0,1,2.543.9,3.2,3.2,0,0,1,.973,2.4H61.078a1.551,1.551,0,0,0-.406-1.072,1.51,1.51,0,0,0-2.223.163,3.333,3.333,0,0,0-.4,1.866v.235a3.375,3.375,0,0,0,.4,1.878A1.377,1.377,0,0,0,59.656,31.336Zm9.891.8a2.831,2.831,0,0,1-2.312,1.016,2.67,2.67,0,0,1-2.074-.781,3.335,3.335,0,0,1-.73-2.289V24.547h2.258v5.467q0,1.322,1.2,1.322a1.63,1.63,0,0,0,1.578-.8V24.547h2.266V33H69.609Zm7.406-.8a1.481,1.481,0,0,0,1.016-.344,1.2,1.2,0,0,0,.406-.914h2.117a2.9,2.9,0,0,1-.469,1.574,3.093,3.093,0,0,1-1.262,1.109,3.949,3.949,0,0,1-1.77.395A3.67,3.67,0,0,1,74.133,32a4.56,4.56,0,0,1-1.047-3.184v-.148a4.508,4.508,0,0,1,1.039-3.117,3.627,3.627,0,0,1,2.852-1.164,3.555,3.555,0,0,1,2.543.9,3.2,3.2,0,0,1,.973,2.4H78.375a1.551,1.551,0,0,0-.406-1.072,1.51,1.51,0,0,0-2.223.163,3.333,3.333,0,0,0-.4,1.866v.235a3.375,3.375,0,0,0,.4,1.878A1.377,1.377,0,0,0,76.953,31.336ZM84.164,33H81.9V24.547h2.266Zm-2.4-10.641a1.112,1.112,0,0,1,.34-.836,1.465,1.465,0,0,1,1.848,0,1.193,1.193,0,0,1,0,1.68,1.448,1.448,0,0,1-1.836,0A1.108,1.108,0,0,1,81.766,22.359ZM85.672,28.7a5.013,5.013,0,0,1,.484-2.242,3.546,3.546,0,0,1,1.395-1.523,4.069,4.069,0,0,1,2.113-.539,3.849,3.849,0,0,1,2.793,1.047,4.2,4.2,0,0,1,1.207,2.844l.016.578a4.418,4.418,0,0,1-1.086,3.121,4.209,4.209,0,0,1-5.832,0,4.5,4.5,0,0,1-1.09-3.187Zm2.258.16a3.16,3.16,0,0,0,.453,1.843,1.628,1.628,0,0,0,2.578.008,3.457,3.457,0,0,0,.461-2.015,3.128,3.128,0,0,0-.461-1.831,1.5,1.5,0,0,0-1.3-.649,1.474,1.474,0,0,0-1.281.646A3.516,3.516,0,0,0,87.93,28.856ZM90.109,21H92.57l-2.164,2.422H88.57Zm7.039,3.547.07.977a2.951,2.951,0,0,1,2.43-1.133,2.453,2.453,0,0,1,2,.789,3.682,3.682,0,0,1,.672,2.359V33h-2.258V27.594a1.465,1.465,0,0,0-.312-1.043,1.4,1.4,0,0,0-1.039-.324,1.553,1.553,0,0,0-1.43.813V33H95.023V24.547Z" transform="translate(996.992 1747.446)" fill="#12263f"/>
    <path id="Trazado_773898" data-name="Trazado 773898" d="M39.6,33.884l-.465-.257a.742.742,0,0,1-.4-.748,6.164,6.164,0,0,0,0-1.758.742.742,0,0,1,.4-.748l.465-.257a.75.75,0,0,0,.294-1.049L38.6,26.933a.825.825,0,0,0-1.1-.281l-.471.26a.852.852,0,0,1-.915-.075,6.884,6.884,0,0,0-1.5-.835.788.788,0,0,1-.524-.719v-.515a.786.786,0,0,0-.8-.768H30.711a.786.786,0,0,0-.8.768v.515a.788.788,0,0,1-.524.719,6.884,6.884,0,0,0-1.5.835.852.852,0,0,1-.915.075l-.471-.26a.825.825,0,0,0-1.1.281l-1.288,2.134a.75.75,0,0,0,.294,1.049l.465.257a.742.742,0,0,1,.4.748,6.164,6.164,0,0,0,0,1.758.742.742,0,0,1-.4.748l-.465.257a.75.75,0,0,0-.294,1.049L25.4,37.067a.825.825,0,0,0,1.1.281l.471-.26a.852.852,0,0,1,.915.075,6.884,6.884,0,0,0,1.5.835.788.788,0,0,1,.524.719v.515a.786.786,0,0,0,.8.768h2.578a.786.786,0,0,0,.8-.768v-.515A.788.788,0,0,1,34.616,38a6.884,6.884,0,0,0,1.5-.835.852.852,0,0,1,.915-.075l.471.26a.825.825,0,0,0,1.1-.281l1.288-2.134a.75.75,0,0,0-.29-1.051ZM32,35a3,3,0,1,1,3-3,3,3,0,0,1-3,3Z" transform="translate(768 1676)" fill="#6c8199"/>
    <path id="Trazado_775254" data-name="Trazado 775254" d="M7,0A7,7,0,1,1,0,7,7,7,0,0,1,7,0Z" transform="translate(793 1678)" fill="#5ab360"/>
    <path id="Trazado_775255" data-name="Trazado 775255" d="M7,0A7,7,0,1,1,0,7,7,7,0,0,1,7,0Z" transform="translate(816 1701)" fill="#4993f2"/>
    <path id="Trazado_775256" data-name="Trazado 775256" d="M7,0A7,7,0,1,1,0,7,7,7,0,0,1,7,0Z" transform="translate(770 1701)" fill="#fe502d"/>
    <path id="Trazado_775257" data-name="Trazado 775257" d="M7,0A7,7,0,1,1,0,7,7,7,0,0,1,7,0Z" transform="translate(793 1724)" fill="#ffc44d"/>
    <path id="Trazado_773899" data-name="Trazado 773899" d="M23.059,34.1a1.723,1.723,0,0,0,.193,1.349l1.288,2.133a1.835,1.835,0,0,0,2.438.641l.376-.208a7.825,7.825,0,0,0,1.553.867v.349A1.789,1.789,0,0,0,30.711,41h2.578a1.789,1.789,0,0,0,1.8-1.768v-.349a7.847,7.847,0,0,0,1.553-.867l.376.208a1.835,1.835,0,0,0,2.437-.64l1.29-2.134a1.727,1.727,0,0,0,.192-1.349,1.788,1.788,0,0,0-.86-1.093l-.329-.181a7.148,7.148,0,0,0,0-1.654l.329-.181a1.788,1.788,0,0,0,.86-1.093,1.723,1.723,0,0,0-.193-1.349L39.46,26.417a1.834,1.834,0,0,0-2.438-.641l-.376.208a7.825,7.825,0,0,0-1.553-.867v-.349A1.789,1.789,0,0,0,33.289,23H30.711a1.789,1.789,0,0,0-1.8,1.768v.349a7.847,7.847,0,0,0-1.553.867l-.376-.208a1.835,1.835,0,0,0-2.437.64l-1.29,2.134a1.727,1.727,0,0,0-.192,1.349,1.788,1.788,0,0,0,.86,1.093l.329.181a7.148,7.148,0,0,0,0,1.654l-.329.181a1.788,1.788,0,0,0-.864,1.092ZM26.2,32a5.019,5.019,0,0,1,.054-.738,1.732,1.732,0,0,0-.9-1.764l-.251-.139,1.057-1.751.324.179a1.863,1.863,0,0,0,1.992-.144,5.809,5.809,0,0,1,1.283-.712,1.787,1.787,0,0,0,1.151-1.648V25H33.1v.283a1.787,1.787,0,0,0,1.151,1.648,5.8,5.8,0,0,1,1.284.713,1.858,1.858,0,0,0,1.991.143l.324-.179L38.9,29.359l-.25.138a1.733,1.733,0,0,0-.9,1.768A5.087,5.087,0,0,1,37.8,32a5.019,5.019,0,0,1-.054.738,1.732,1.732,0,0,0,.9,1.764l.251.139L37.84,36.392l-.324-.179a1.865,1.865,0,0,0-1.992.144,5.809,5.809,0,0,1-1.283.712,1.787,1.787,0,0,0-1.151,1.648V39H30.907v-.283a1.787,1.787,0,0,0-1.151-1.648,5.8,5.8,0,0,1-1.284-.713,1.864,1.864,0,0,0-1.991-.143l-.324.179L25.1,34.641l.25-.138a1.733,1.733,0,0,0,.9-1.768A5.087,5.087,0,0,1,26.2,32Z" transform="translate(768 1676)"/>
    <path id="Trazado_773900" data-name="Trazado 773900" d="M32,36a4,4,0,1,0-4-4A4,4,0,0,0,32,36Zm0-6a2,2,0,1,1-2,2A2,2,0,0,1,32,30Z" transform="translate(768 1676)"/>
    <path id="Trazado_773901" data-name="Trazado 773901" d="M32,17a8,8,0,1,0-8-8A8,8,0,0,0,32,17ZM32,3a6,6,0,1,1-6,6,6,6,0,0,1,6-6Z" transform="translate(768 1676)"/>
    <path id="Trazado_773902" data-name="Trazado 773902" d="M63,32a8,8,0,1,0-8,8,8,8,0,0,0,8-8Zm-8,6a6,6,0,1,1,6-6,6,6,0,0,1-6,6Z" transform="translate(768 1676)"/>
    <path id="Trazado_773903" data-name="Trazado 773903" d="M9,40a8,8,0,1,0-8-8,8,8,0,0,0,8,8ZM9,26a6,6,0,1,1-6,6,6,6,0,0,1,6-6Z" transform="translate(768 1676)"/>
    <path id="Trazado_773904" data-name="Trazado 773904" d="M40,55a8,8,0,1,0-8,8,8,8,0,0,0,8-8ZM26,55a6,6,0,1,1,6,6,6,6,0,0,1-6-6Z" transform="translate(768 1676)"/>
    <path id="Trazado_773905" data-name="Trazado 773905" d="M8,14a5.006,5.006,0,0,1,5-5h4l-1.6,1.2,1.2,1.6,4-3a1,1,0,0,0,0-1.6l-4-3L15.4,5.8,17,7H13a7.008,7.008,0,0,0-7,7v7H8Z" transform="translate(768 1676)"/>
    <path id="Trazado_773906" data-name="Trazado 773906" d="M56,14v3l-1.2-1.6-1.6,1.2,3,4a1,1,0,0,0,1.6,0l3-4-1.6-1.2L58,17V14a7.008,7.008,0,0,0-7-7H43V9h8a5.006,5.006,0,0,1,5,5Z" transform="translate(768 1676)"/>
    <path id="Trazado_773907" data-name="Trazado 773907" d="M47.4,59.8l1.2-1.6L47,57h4a7.008,7.008,0,0,0,7-7V43H56v7a5.006,5.006,0,0,1-5,5H47l1.6-1.2-1.2-1.6-4,3a1,1,0,0,0,0,1.6Z" transform="translate(768 1676)"/>
    <path id="Trazado_773908" data-name="Trazado 773908" d="M9.2,48.6l1.6-1.2-3-4a1.036,1.036,0,0,0-1.6,0l-3,4,1.6,1.2L6,47v3a7.008,7.008,0,0,0,7,7h8V55H13a5.006,5.006,0,0,1-5-5V47Z" transform="translate(768 1676)"/>
    <path id="Trazado_773909" data-name="Trazado 773909" d="M31,8h2v2H31Z" transform="translate(768 1676)"/>
    <path id="Trazado_773910" data-name="Trazado 773910" d="M52,31h2v2H52Z" transform="translate(768 1676)"/>
    <path id="Trazado_773911" data-name="Trazado 773911" d="M56,31h2v2H56Z" transform="translate(768 1676)"/>
    <path id="Trazado_773912" data-name="Trazado 773912" d="M29,56h2v2H29Z" transform="translate(768 1676)"/>
    <path id="Trazado_773913" data-name="Trazado 773913" d="M33,56h2v2H33Z" transform="translate(768 1676)"/>
    <path id="Trazado_773914" data-name="Trazado 773914" d="M31,52h2v2H31Z" transform="translate(768 1676)"/>
    <path id="Trazado_773915" data-name="Trazado 773915" d="M6,33H8v2H6Z" transform="translate(768 1676)"/>
    <path id="Trazado_773916" data-name="Trazado 773916" d="M10,33h2v2H10Z" transform="translate(768 1676)"/>
    <path id="Trazado_773917" data-name="Trazado 773917" d="M6,29H8v2H6Z" transform="translate(768 1676)"/>
    <path id="Trazado_773918" data-name="Trazado 773918" d="M10,29h2v2H10Z" transform="translate(768 1676)"/>
    <path id="Trazado_773919" data-name="Trazado 773919" d="M63.459,40.424V33.035a1.086,1.086,0,0,0-1.087-1.087H58.306a21.957,21.957,0,0,0-2.938-7.1l2.873-2.873a1.086,1.086,0,0,0,0-1.536l-5.224-5.224a1.086,1.086,0,0,0-1.536,0L48.608,18.09a21.957,21.957,0,0,0-7.1-2.938V11.087A1.086,1.086,0,0,0,40.424,10H33.035a1.086,1.086,0,0,0-1.087,1.087v4.072A21.961,21.961,0,0,0,24.862,18.1l-2.884-2.884a1.086,1.086,0,0,0-1.536,0l-5.224,5.224a1.086,1.086,0,0,0,0,1.536l2.89,2.89a21.954,21.954,0,0,0-2.927,7.08H11.087A1.086,1.086,0,0,0,10,33.035v7.389a1.086,1.086,0,0,0,1.087,1.087h4.1a21.963,21.963,0,0,0,2.932,7.07l-2.9,2.9a1.086,1.086,0,0,0,0,1.536l5.224,5.224a1.086,1.086,0,0,0,1.536,0l2.9-2.9a21.963,21.963,0,0,0,7.07,2.932v4.1a1.086,1.086,0,0,0,1.087,1.087h7.389a1.086,1.086,0,0,0,1.087-1.087V58.279a21.948,21.948,0,0,0,7.08-2.927l2.891,2.89a1.086,1.086,0,0,0,1.536,0l5.224-5.224a1.086,1.086,0,0,0,0-1.536L55.358,48.6A21.954,21.954,0,0,0,58.3,41.51h4.072a1.086,1.086,0,0,0,1.087-1.087Zm0,0" transform="translate(1026.087 1671.271)" fill="#79b2ff"/>
    <path id="Trazado_773920" data-name="Trazado 773920" d="M31.51,55.632H24.122a2.176,2.176,0,0,1-2.173-2.173V50.215a22.955,22.955,0,0,1-5.82-2.413l-2.3,2.3a2.176,2.176,0,0,1-3.073,0L5.535,44.872a2.175,2.175,0,0,1,0-3.073l2.3-2.3a22.955,22.955,0,0,1-2.413-5.82H2.173A2.176,2.176,0,0,1,0,31.51V24.121a2.176,2.176,0,0,1,2.173-2.173H5.41a22.954,22.954,0,0,1,2.411-5.83L5.535,13.832a2.175,2.175,0,0,1,0-3.073l5.225-5.225a2.176,2.176,0,0,1,3.073,0l2.278,2.278a22.954,22.954,0,0,1,5.838-2.424V2.173A2.176,2.176,0,0,1,24.122,0H31.51a2.176,2.176,0,0,1,2.173,2.173V5.382A22.965,22.965,0,0,1,39.531,7.8L41.8,5.535a2.175,2.175,0,0,1,3.073,0L50.1,10.759a2.176,2.176,0,0,1,0,3.073L47.829,16.1a22.965,22.965,0,0,1,2.421,5.847h3.209a2.176,2.176,0,0,1,2.173,2.173V31.51a2.176,2.176,0,0,1-2.173,2.173H50.242a22.97,22.97,0,0,1-2.424,5.838L50.1,41.8a2.175,2.175,0,0,1,0,3.073L44.872,50.1a2.176,2.176,0,0,1-3.073,0l-2.286-2.286a22.967,22.967,0,0,1-5.83,2.411v3.237a2.176,2.176,0,0,1-2.173,2.173ZM15.966,45.341a1.085,1.085,0,0,1,.584.171A20.805,20.805,0,0,0,23.27,48.3a1.087,1.087,0,0,1,.852,1.061v4.1H31.51V49.365a1.086,1.086,0,0,1,.853-1.061,20.821,20.821,0,0,0,6.73-2.783,1.087,1.087,0,0,1,1.352.148l2.89,2.89,5.224-5.224-2.884-2.884a1.087,1.087,0,0,1-.147-1.354,20.819,20.819,0,0,0,2.8-6.736,1.086,1.086,0,0,1,1.061-.852h4.072V24.121H49.393a1.086,1.086,0,0,1-1.061-.853,20.807,20.807,0,0,0-2.793-6.746,1.087,1.087,0,0,1,.148-1.353L48.56,12.3,43.336,7.071,40.462,9.945a1.087,1.087,0,0,1-1.353.148A20.816,20.816,0,0,0,32.363,7.3a1.086,1.086,0,0,1-.853-1.061V2.173H24.122V6.245a1.087,1.087,0,0,1-.851,1.061,20.816,20.816,0,0,0-6.736,2.8,1.086,1.086,0,0,1-1.354-.147L12.3,7.071,7.072,12.3l2.89,2.891a1.086,1.086,0,0,1,.148,1.352,20.821,20.821,0,0,0-2.783,6.73,1.086,1.086,0,0,1-1.061.853H2.173V31.51h4.1a1.087,1.087,0,0,1,1.061.852,20.811,20.811,0,0,0,2.787,6.72,1.087,1.087,0,0,1-.148,1.353l-2.9,2.9L12.3,48.561l2.9-2.9a1.087,1.087,0,0,1,.769-.318Zm0,0" transform="translate(1035 1680.185)"/>
    <path id="Trazado_773921" data-name="Trazado 773921" d="M149.554,134.777A14.777,14.777,0,1,1,134.777,120,14.777,14.777,0,0,1,149.554,134.777Zm0,0" transform="translate(928.039 1573.223)" fill="#fff"/>
    <path id="Trazado_773922" data-name="Trazado 773922" d="M125.924,141.737a15.861,15.861,0,1,1,7.755-29.7,1.086,1.086,0,1,1-1.063,1.9,13.691,13.691,0,1,0,5.561,5.83,1.087,1.087,0,1,1,1.944-.971,15.858,15.858,0,0,1-14.2,22.945Zm0,0" transform="translate(936.892 1582.12)"/>
    <path id="Trazado_773923" data-name="Trazado 773923" d="M345.439,154.185a1.088,1.088,0,1,1,.768-.319A1.093,1.093,0,0,1,345.439,154.185Zm0,0" transform="translate(728.063 1544.689)"/>
    <path id="Trazado_773924" data-name="Trazado 773924" d="M191.56,192.332l-6.041,6.041-2.974-2.974-3.9,3.9,2.974,2.974,3.9,3.9,9.938-9.938Zm0,0" transform="translate(875.764 1508.75)" fill="#5ab360"/>
    <path id="Trazado_773925" data-name="Trazado 773925" d="M176.606,198.341a1.087,1.087,0,0,1-.768-.318l-6.871-6.872a1.086,1.086,0,0,1,0-1.536l3.9-3.9a1.088,1.088,0,0,1,1.537,0l2.205,2.206,5.273-5.272a1.086,1.086,0,0,1,1.536,0l3.9,3.9a1.087,1.087,0,0,1,0,1.536l-9.938,9.938A1.088,1.088,0,0,1,176.606,198.341Zm-5.335-7.958,5.335,5.335,8.4-8.4-2.361-2.361-5.272,5.272a1.087,1.087,0,0,1-1.537,0l-2.206-2.206Zm0,0" transform="translate(884.676 1517.664)"/>
    <path id="Trazado_773926" data-name="Trazado 773926" d="M10,430v3.913a3.131,3.131,0,0,0,3.13,3.13H55a3.131,3.131,0,0,0,3.13-3.13V430Zm0,0" transform="translate(503.979 1295.065)" fill="#e1e3e9"/>
    <path id="Trazado_773927" data-name="Trazado 773927" d="M10,182v24.261a3.131,3.131,0,0,0,3.13,3.13H55a3.131,3.131,0,0,0,3.13-3.13V182" transform="translate(503.979 1518.805)" fill="#fff"/>
    <path id="Trazado_773928" data-name="Trazado 773928" d="M55.2,62H12.935A2.935,2.935,0,0,0,10,64.935v8.8H58.13v-8.8A2.935,2.935,0,0,0,55.2,62Zm0,0" transform="translate(503.979 1627.065)" fill="#fe502d"/>
    <path id="Trazado_773929" data-name="Trazado 773929" d="M66.147,19.783A2.147,2.147,0,0,1,64,17.635V12.147a2.147,2.147,0,1,1,4.294,0v5.488A2.147,2.147,0,0,1,66.147,19.783Zm0,0" transform="translate(455.262 1673.979)" fill="#e1e3e9"/>
    <path id="Trazado_773930" data-name="Trazado 773930" d="M406.253,19.783a2.147,2.147,0,0,1-2.147-2.147V12.147a2.147,2.147,0,1,1,4.294,0v5.488A2.147,2.147,0,0,1,406.253,19.783Zm0,0" transform="translate(148.427 1673.979)" fill="#e1e3e9"/>
    <path id="Trazado_773931" data-name="Trazado 773931" d="M236.327,19.783a2.147,2.147,0,0,1-2.147-2.147V12.147a2.147,2.147,0,1,1,4.294,0v5.488A2.147,2.147,0,0,1,236.327,19.783Zm0,0" transform="translate(301.729 1673.979)" fill="#e1e3e9"/>
    <path id="Trazado_773932" data-name="Trazado 773932" d="M179.82,236.673l1.905,3.861,4.26.619a1.267,1.267,0,0,1,.7,2.162l-3.083,3.005.728,4.243a1.267,1.267,0,0,1-1.839,1.336l-3.81-2-3.811,2a1.267,1.267,0,0,1-1.839-1.336l.728-4.243-3.083-3.005a1.267,1.267,0,0,1,.7-2.162l4.26-.619,1.905-3.861a1.267,1.267,0,0,1,2.273,0Zm0,0" transform="translate(359.364 1470.117)" fill="#ffca00"/>
    <path id="Trazado_773933" data-name="Trazado 773933" d="M45.979,5.087H44.8V3.125a3.125,3.125,0,1,0-6.251,0V5.087H28.182V3.125a3.125,3.125,0,1,0-6.251,0V5.087h-10.4V3.125a3.125,3.125,0,1,0-6.251,0V5.087H4.109A4.113,4.113,0,0,0,0,9.2V45.978a4.113,4.113,0,0,0,4.109,4.109h41.87a4.113,4.113,0,0,0,4.109-4.109V9.2a4.113,4.113,0,0,0-4.109-4.109ZM40.511,3.125a1.169,1.169,0,1,1,2.338,0V8.614a1.169,1.169,0,1,1-2.338,0Zm-16.623,0a1.169,1.169,0,1,1,2.338,0V8.614a1.169,1.169,0,1,1-2.338,0Zm-16.648,0a1.169,1.169,0,1,1,2.338,0V8.614a1.169,1.169,0,1,1-2.338,0ZM4.109,7.043H5.283v1.57a3.125,3.125,0,1,0,6.251,0V7.043h10.4v1.57a3.125,3.125,0,1,0,6.251,0V7.043H38.554v1.57a3.125,3.125,0,1,0,6.251,0V7.043h1.174A2.154,2.154,0,0,1,48.131,9.2v7.63H29.446a.978.978,0,1,0,0,1.957H48.131V42.065a2.154,2.154,0,0,1-2.152,2.152H4.109a2.154,2.154,0,0,1-2.152-2.152V18.783H20.642a.978.978,0,0,0,0-1.957H1.957V9.2A2.154,2.154,0,0,1,4.109,7.043ZM45.979,48.13H4.109a2.154,2.154,0,0,1-2.152-2.152v-.415a4.084,4.084,0,0,0,2.152.611h41.87a4.084,4.084,0,0,0,2.152-.611v.415A2.154,2.154,0,0,1,45.979,48.13Zm0,0" transform="translate(513 1683)"/>
    <path id="Trazado_773934" data-name="Trazado 773934" d="M246.978,173.957a.979.979,0,1,0-.692-.287A.986.986,0,0,0,246.978,173.957Zm0,0" transform="translate(291.065 1527.826)"/>
    <path id="Trazado_773935" data-name="Trazado 773935" d="M162.218,231.165A2.246,2.246,0,0,0,160.973,235l2.715,2.646-.641,3.736a2.245,2.245,0,0,0,3.258,2.367l3.356-1.764,3.355,1.764a2.246,2.246,0,0,0,3.258-2.367l-.641-3.736L178.348,235a2.246,2.246,0,0,0-1.245-3.831l-3.751-.545-1.678-3.4a2.246,2.246,0,0,0-4.027,0l-1.678,3.4Zm5.278.782,1.905-3.861a.289.289,0,0,1,.519,0l1.905,3.861a.979.979,0,0,0,.736.535l4.26.619a.289.289,0,0,1,.16.493L173.9,236.6a.978.978,0,0,0-.281.866l.728,4.243a.289.289,0,0,1-.419.3l-3.811-2a.981.981,0,0,0-.91,0l-3.811,2a.289.289,0,0,1-.42-.3l.728-4.243a.978.978,0,0,0-.281-.866l-3.083-3.005a.289.289,0,0,1,.16-.493l4.26-.619a.98.98,0,0,0,.736-.535Zm0,0" transform="translate(368.388 1479.137)"/>
  </g>
</svg>
