<svg id="Grupo_1029223" data-name="Grupo 1029223" xmlns="http://www.w3.org/2000/svg" width="51.151" height="51.151" viewBox="0 0 51.151 51.151">
  <path id="Trazado_775167" data-name="Trazado 775167" d="M127.937,114.747l-1.143,1.144-1.144-1.144a7.731,7.731,0,0,0-10.933,10.933L125.734,136.7a1.5,1.5,0,0,0,2.119,0l11.017-11.017a7.731,7.731,0,1,0-10.933-10.933Zm8.814,8.814-9.957,9.957-9.957-9.957h0a4.734,4.734,0,0,1,6.694-6.695l2.2,2.2a1.5,1.5,0,0,0,2.12,0l2.2-2.2a4.734,4.734,0,1,1,6.695,6.694Z" transform="translate(-101.218 -101.249)" fill="#fe502d"/>
  <path id="Trazado_775168" data-name="Trazado 775168" d="M43.232,0H7.919A7.928,7.928,0,0,0,0,7.919V35.207a7.928,7.928,0,0,0,7.919,7.919h9.01l7.587,7.587a1.5,1.5,0,0,0,2.119,0l7.587-7.587h9.01a7.928,7.928,0,0,0,7.919-7.919V7.919A7.928,7.928,0,0,0,43.232,0Zm4.922,35.207a4.928,4.928,0,0,1-4.922,4.922H33.6a1.5,1.5,0,0,0-1.06.439l-6.966,6.966L18.61,40.567a1.5,1.5,0,0,0-1.06-.439H7.919A4.928,4.928,0,0,1,3,35.207V7.919A4.928,4.928,0,0,1,7.919,3H43.232a4.928,4.928,0,0,1,4.922,4.922Z" fill="#fe502d"/>
</svg>
