<svg id="Grupo_1029231" data-name="Grupo 1029231" xmlns="http://www.w3.org/2000/svg" width="55.813" height="55.813" viewBox="0 0 55.813 55.813">
  <g id="Grupo_1029226" data-name="Grupo 1029226">
    <g id="Grupo_1029225" data-name="Grupo 1029225">
      <path id="Trazado_775173" data-name="Trazado 775173" d="M27.906,0A27.906,27.906,0,1,0,55.813,27.906,27.891,27.891,0,0,0,27.906,0Zm0,52.092A24.185,24.185,0,1,1,52.092,27.906,24.213,24.213,0,0,1,27.906,52.092Z" fill="#fe502d"/>
    </g>
  </g>
  <g id="Grupo_1029228" data-name="Grupo 1029228" transform="translate(24.807 34.005)">
    <g id="Grupo_1029227" data-name="Grupo 1029227">
      <path id="Trazado_775174" data-name="Trazado 775174" d="M229.963,311.95a2.423,2.423,0,0,0,0,4.845,2.423,2.423,0,1,0,0-4.845Z" transform="translate(-227.572 -311.95)" fill="#fe502d"/>
    </g>
  </g>
  <g id="Grupo_1029230" data-name="Grupo 1029230" transform="translate(21.409 15.662)">
    <g id="Grupo_1029229" data-name="Grupo 1029229">
      <path id="Trazado_775175" data-name="Trazado 775175" d="M202.6,143.679c-4.247,0-6.2,2.517-6.2,4.216a1.8,1.8,0,0,0,1.888,1.793c1.7,0,1.007-2.423,4.216-2.423,1.573,0,2.832.692,2.832,2.14,0,1.7-1.762,2.674-2.8,3.555a5.759,5.759,0,0,0-2.108,4.783c0,1.636.44,2.108,1.73,2.108,1.542,0,1.856-.692,1.856-1.29,0-1.636.031-2.58,1.762-3.933.85-.661,3.524-2.8,3.524-5.758S206.625,143.679,202.6,143.679Z" transform="translate(-196.399 -143.679)" fill="#fe502d"/>
    </g>
  </g>
</svg>
