<svg xmlns="http://www.w3.org/2000/svg" width="55.813" height="53.081" viewBox="0 0 55.813 53.081">
  <g id="Layer_2" data-name="Layer 2" transform="translate(-1 -1.737)">
    <path id="Trazado_775169" data-name="Trazado 775169" d="M53.144,20.83h-2.67a.744.744,0,0,1-.7-.458,22.208,22.208,0,0,0-3.6-6.227.744.744,0,0,1-.039-.832L47.469,11A3.667,3.667,0,0,0,46.128,5.99L39.591,2.226a3.674,3.674,0,0,0-5.01,1.343L33.258,5.862a.759.759,0,0,1-.718.406,22.243,22.243,0,0,0-7.282,0,.727.727,0,0,1-.694-.393L23.232,3.568a3.676,3.676,0,0,0-5.01-1.341L11.684,5.992A3.676,3.676,0,0,0,10.341,11l1.338,2.312a.761.761,0,0,1-.071.869A21.886,21.886,0,0,0,9.571,17.11a22.163,22.163,0,0,0-1.516,3.226.755.755,0,0,1-.714.495H4.669A3.672,3.672,0,0,0,1,24.5v7.548a3.672,3.672,0,0,0,3.669,3.667h2.67a.744.744,0,0,1,.7.458,22.208,22.208,0,0,0,3.6,6.227.744.744,0,0,1,.039.832l-1.334,2.312a3.667,3.667,0,0,0,1.341,5.012l6.538,3.773a3.672,3.672,0,0,0,5.01-1.343l1.323-2.292a.753.753,0,0,1,.718-.406,22.3,22.3,0,0,0,7.282,0,.729.729,0,0,1,.694.393l1.332,2.307a3.676,3.676,0,0,0,5.01,1.343l6.538-3.775a3.676,3.676,0,0,0,1.343-5.01L46.134,43.23a.761.761,0,0,1,.071-.869,21.7,21.7,0,0,0,2.035-2.926h0a22.163,22.163,0,0,0,1.516-3.226.755.755,0,0,1,.716-.495h2.672a3.672,3.672,0,0,0,3.669-3.669V24.5a3.672,3.672,0,0,0-3.669-3.667ZM50.472,31.993a4.5,4.5,0,0,0-4.2,2.91,17.534,17.534,0,0,1-2.941,5.09,4.512,4.512,0,0,0-.422,5.092l1.358,2.233L37.8,51.111,36.471,48.8a4.476,4.476,0,0,0-3.844-2.246,4.242,4.242,0,0,0-.683.056,18.383,18.383,0,0,1-6.065,0,4.476,4.476,0,0,0-4.547,2.218L20.082,51.1l-6.511-3.7,1.336-2.312a4.478,4.478,0,0,0-.385-5.049,18.576,18.576,0,0,1-3-5.185,4.465,4.465,0,0,0-4.184-2.863l-2.618.054-.052-7.5H7.34a4.5,4.5,0,0,0,4.2-2.91,17.423,17.423,0,0,1,2.941-5.09A4.512,4.512,0,0,0,14.9,11.46L13.545,9.227,20.01,5.434l1.332,2.307a4.428,4.428,0,0,0,4.526,2.2,18.483,18.483,0,0,1,6.065,0A4.476,4.476,0,0,0,36.48,7.726l1.25-2.272,6.511,3.7-1.33,2.3A4.478,4.478,0,0,0,43.3,16.5a18.576,18.576,0,0,1,3,5.185,4.465,4.465,0,0,0,4.178,2.863l2.618-.054.052,7.5Z" transform="translate(0 0)" fill="#fe502d"/>
    <path id="Trazado_775170" data-name="Trazado 775170" d="M21.163,10A11.163,11.163,0,1,0,32.325,21.163,11.163,11.163,0,0,0,21.163,10Zm0,18.6A7.442,7.442,0,1,1,28.6,21.163,7.442,7.442,0,0,1,21.163,28.6Z" transform="translate(7.744 7.11)" fill="#fe502d"/>
  </g>
</svg>
