<svg xmlns="http://www.w3.org/2000/svg" width="59" height="59" viewBox="0 0 59 59">
  <g id="Layer_x0020_1" transform="translate(-3 -3)">
    <path id="Trazado_775171" data-name="Trazado 775171" d="M31.72,33.835c1.6.937,3.156-1.734,1.561-2.671S30.089,32.934,31.72,33.835ZM21.036,19.892a1.363,1.363,0,0,0-1.145,2.116l9.192,14.221a1.127,1.127,0,0,0,.451.451l13.7,8.255a1.4,1.4,0,0,0,1.908-1.908l-8.255-13.77a1.3,1.3,0,0,0-.486-.486L21.765,20.065A1.864,1.864,0,0,0,21.036,19.892Zm10.2,14.568-5.827-8.984,9.3,5.515,5.2,8.706ZM32.483,3A29.5,29.5,0,1,0,62,32.517,29.532,29.532,0,0,0,32.483,3Zm0,56.225A26.725,26.725,0,1,1,59.225,32.517,26.719,26.719,0,0,1,32.483,59.225Zm-.035-50.78a24.089,24.089,0,1,0,.035,0ZM31.1,53.745A21.336,21.336,0,0,1,11.255,33.9h4.128a1.388,1.388,0,0,0,0-2.775H11.255A21.341,21.341,0,0,1,31.1,11.255v4.128a1.388,1.388,0,0,0,2.775,0V11.255A21.345,21.345,0,0,1,53.745,31.13H49.617a1.388,1.388,0,0,0,0,2.775h4.128A21.341,21.341,0,0,1,33.87,53.745V49.617a1.388,1.388,0,0,0-2.775,0Z" transform="translate(0 0)" fill="#ffca00" fill-rule="evenodd"/>
  </g>
</svg>
