<svg xmlns="http://www.w3.org/2000/svg" width="55.305" height="61.483" viewBox="0 0 55.305 61.483">
  <g id="Grupo_1029232" data-name="Grupo 1029232" transform="translate(-19.284 0)">
    <path id="Trazado_775176" data-name="Trazado 775176" d="M213.357,261.962a4.661,4.661,0,1,0,4.661,4.661A4.674,4.674,0,0,0,213.357,261.962Zm0,6.525a1.942,1.942,0,1,1,1.942-2.02A2.043,2.043,0,0,1,213.357,268.487Z" transform="translate(-159.068 -219.995)" fill="#ffca00"/>
    <path id="Trazado_775177" data-name="Trazado 775177" d="M20.265,51.521a1.366,1.366,0,0,0,.078,2.641,33.278,33.278,0,0,0,20.43-1.787,12.635,12.635,0,0,0,.855,1.787,18.762,18.762,0,0,0,2.1,2.8,1.415,1.415,0,0,0,2.1-.078,2.35,2.35,0,0,1,3.34-.388,2.321,2.321,0,0,1,.777,2.719,1.419,1.419,0,0,0,.932,1.864,15.185,15.185,0,0,0,6.991,0,1.419,1.419,0,0,0,.932-1.864,2.292,2.292,0,0,1,1.321-3.03,2.373,2.373,0,0,1,2.719.7,1.329,1.329,0,0,0,2.02.078,14.442,14.442,0,0,0,3.5-6.059,1.344,1.344,0,0,0-1.087-1.709,2.354,2.354,0,0,1-2.02-2.641,2.389,2.389,0,0,1,2.02-2.02,1.3,1.3,0,0,0,1.087-1.709,15.315,15.315,0,0,0-3.5-6.059,1.415,1.415,0,0,0-2.1.078,2.367,2.367,0,0,1-3.806-.155A29.834,29.834,0,0,0,63.3,22.935h9.943a1.352,1.352,0,0,0,.932-2.33L53.978.408a1.36,1.36,0,0,0-1.942,0l-20.2,20.2a1.369,1.369,0,0,0,.932,2.33h9.788A30.828,30.828,0,0,1,20.265,51.521ZM63.688,39.714a11.757,11.757,0,0,1,1.554,2.719,5.108,5.108,0,0,0-2.253,6.836,4.871,4.871,0,0,0,2.253,2.253,13.61,13.61,0,0,1-1.554,2.719,5.112,5.112,0,0,0-7.069,1.4,4.973,4.973,0,0,0-.855,3.107,10.414,10.414,0,0,1-3.107,0,5.05,5.05,0,0,0-4.738-5.36,4.974,4.974,0,0,0-3.107.855,11.756,11.756,0,0,1-1.554-2.719,5.1,5.1,0,0,0,2.8-4.505,5.007,5.007,0,0,0-2.8-4.505,13.61,13.61,0,0,1,1.554-2.719,5.063,5.063,0,0,0,7.846-4.505,10.414,10.414,0,0,1,3.107,0,4.423,4.423,0,0,0,.311,2.02,5.1,5.1,0,0,0,6.525,3.03c.388-.233.777-.466,1.087-.621ZM45.433,21.693a1.433,1.433,0,0,0-1.321-1.4H36.189L53.123,3.36,70.058,20.294H61.979a1.433,1.433,0,0,0-1.4,1.321A26.575,26.575,0,0,1,57.939,32.8a14.323,14.323,0,0,0-7.224-.078,1.419,1.419,0,0,0-.932,1.864,2.333,2.333,0,0,1-4.039,2.253,1.279,1.279,0,0,0-2.02-.078,14.442,14.442,0,0,0-3.5,6.059,1.344,1.344,0,0,0,1.087,1.709,2.334,2.334,0,0,1,1.4,3.884A31.13,31.13,0,0,1,26.091,52.22,33.793,33.793,0,0,0,45.433,21.693Z" fill="#ffca00"/>
  </g>
</svg>
