<svg id="Grupo_1029224" data-name="Grupo 1029224" xmlns="http://www.w3.org/2000/svg" width="49" height="46.678" viewBox="0 0 49 46.678">
  <g id="Grupo_1029220" data-name="Grupo 1029220" transform="translate(0 0)">
    <path id="Trazado_775162" data-name="Trazado 775162" d="M47.956,30.717a4.839,4.839,0,0,1-.974,2.917,4.862,4.862,0,0,1-2.847,8.806H33.077l1.539,5.316V50.3A8.521,8.521,0,0,1,26.1,58.814a2.066,2.066,0,0,1-2.064-2.064V51.1c-.812-1.3-5.536-6.579-10.5-11.9v4.179H0V13.074H13.54v2.192l4.789-1.8a20.891,20.891,0,0,1,7.36-1.335H41a4.862,4.862,0,0,1,3.891,7.781,4.858,4.858,0,0,1,1.043,6.859A4.86,4.86,0,0,1,47.956,30.717ZM10.669,15.945h-7.8V40.515h7.8ZM44.135,35.582H42.913V32.71h.179a1.993,1.993,0,1,0,0-3.987h-.855v0c-.063,0-.126,0-.189,0V25.852a1.994,1.994,0,0,0,0-3.987H41V18.994a1.993,1.993,0,0,0,0-3.987H25.689a18.031,18.031,0,0,0-6.352,1.152l-5.8,2.174v16.68c.982,1.042,3.66,3.894,6.312,6.8,7.06,7.75,7.06,8.3,7.06,8.994v5.073A5.649,5.649,0,0,0,31.745,50.3v-2.14l-2.488-8.594H44.135a1.993,1.993,0,1,0,0-3.987Z" transform="translate(0 -12.136)" fill="#2d54fe"/>
  </g>
</svg>
