<svg xmlns="http://www.w3.org/2000/svg" width="63.284" height="64" viewBox="0 0 63.284 64">
  <g id="Grupo_1029219" data-name="Grupo 1029219" transform="translate(-2.5)">
    <path id="Trazado_775153" data-name="Trazado 775153" d="M189.227,11.454A5.727,5.727,0,1,0,183.5,5.727,5.734,5.734,0,0,0,189.227,11.454Zm0-8.591a2.864,2.864,0,1,1-2.864,2.864A2.867,2.867,0,0,1,189.227,2.864Z" transform="translate(-155.085)" fill="#ffca00"/>
    <path id="Trazado_775154" data-name="Trazado 775154" d="M154.932,101.454a1.432,1.432,0,0,0,1.432-1.432,7.159,7.159,0,0,1,14.318,0,1.432,1.432,0,1,0,2.864,0,10.022,10.022,0,1,0-20.045,0A1.432,1.432,0,0,0,154.932,101.454Z" transform="translate(-129.38 -77.114)" fill="#ffca00"/>
    <path id="Trazado_775155" data-name="Trazado 775155" d="M115.782,165.775l1.974-25.547h4.4a1.432,1.432,0,1,0,0-2.864H104.977v-5.693a1.432,1.432,0,0,0-2.864,0v5.693H84.932a1.432,1.432,0,1,0,0,2.864h4.4l1.974,25.547a1.432,1.432,0,0,0,1.426,1.322c.037,0,.074,0,.112,0a1.432,1.432,0,0,0,1.317-1.538l-1.957-25.326h22.678l-1.957,25.326a1.432,1.432,0,0,0,1.317,1.538c.038,0,.075,0,.112,0A1.432,1.432,0,0,0,115.782,165.775Z" transform="translate(-69.403 -111.593)" fill="#ffca00"/>
    <path id="Trazado_775156" data-name="Trazado 775156" d="M194.954,282.727a5.727,5.727,0,1,0-5.727,5.727A5.734,5.734,0,0,0,194.954,282.727Zm-8.591,0a2.864,2.864,0,1,1,2.864,2.864A2.867,2.867,0,0,1,186.364,282.727Z" transform="translate(-155.085 -237.34)" fill="#ffca00"/>
    <path id="Trazado_775157" data-name="Trazado 775157" d="M163.522,367A10.034,10.034,0,0,0,153.5,377.022a1.432,1.432,0,0,0,2.864,0,7.159,7.159,0,0,1,14.318,0,1.432,1.432,0,0,0,2.864,0A10.034,10.034,0,0,0,163.522,367Z" transform="translate(-129.38 -314.454)" fill="#ffca00"/>
    <path id="Trazado_775158" data-name="Trazado 775158" d="M334.5,282.727A5.727,5.727,0,1,0,340.227,277,5.734,5.734,0,0,0,334.5,282.727Zm5.727-2.864a2.864,2.864,0,1,1-2.864,2.864A2.867,2.867,0,0,1,340.227,279.864Z" transform="translate(-284.465 -237.34)" fill="#ffca00"/>
    <path id="Trazado_775159" data-name="Trazado 775159" d="M314.522,367A10.034,10.034,0,0,0,304.5,377.022a1.432,1.432,0,0,0,2.864,0,7.159,7.159,0,1,1,14.318,0,1.432,1.432,0,0,0,2.864,0A10.034,10.034,0,0,0,314.522,367Z" transform="translate(-258.761 -314.454)" fill="#ffca00"/>
    <path id="Trazado_775160" data-name="Trazado 775160" d="M38.227,288.454a5.727,5.727,0,1,0-5.727-5.727A5.734,5.734,0,0,0,38.227,288.454Zm0-8.591a2.864,2.864,0,1,1-2.864,2.864A2.867,2.867,0,0,1,38.227,279.864Z" transform="translate(-25.705 -237.34)" fill="#ffca00"/>
    <path id="Trazado_775161" data-name="Trazado 775161" d="M12.522,367A10.034,10.034,0,0,0,2.5,377.022a1.432,1.432,0,0,0,2.864,0,7.159,7.159,0,1,1,14.318,0,1.432,1.432,0,0,0,2.864,0A10.034,10.034,0,0,0,12.522,367Z" transform="translate(0 -314.454)" fill="#ffca00"/>
  </g>
</svg>
