<svg xmlns="http://www.w3.org/2000/svg" width="55.813" height="48.371" viewBox="0 0 55.813 48.371">
  <path id="Trazado_775172" data-name="Trazado 775172" d="M49.28,19.805A18.626,18.626,0,0,0,30.767,3H27.046A18.626,18.626,0,0,0,8.533,19.805,8.119,8.119,0,0,0,1,27.879v6.054a8.145,8.145,0,0,0,8.136,8.136h4.887a1.86,1.86,0,0,0,1.86-1.86V21.6a1.86,1.86,0,0,0-1.86-1.86H12.291A14.9,14.9,0,0,1,27.046,6.721h3.721A14.9,14.9,0,0,1,45.522,19.744H43.79a1.86,1.86,0,0,0-1.86,1.86v18.6a1.86,1.86,0,0,0,1.86,1.86h1.6a7.442,7.442,0,0,1-7.177,5.581H34.487V45.79a1.86,1.86,0,1,0-3.721,0V49.51a1.86,1.86,0,0,0,1.86,1.86h5.581a11.162,11.162,0,0,0,11-9.356,8.123,8.123,0,0,0,7.6-8.082V27.879a8.119,8.119,0,0,0-7.533-8.074ZM12.163,38.348H9.136a4.418,4.418,0,0,1-4.415-4.415V27.879a4.418,4.418,0,0,1,4.415-4.415h3.027Zm40.929-4.415a4.418,4.418,0,0,1-4.415,4.415H45.65V23.465h3.027a4.418,4.418,0,0,1,4.415,4.415Z" transform="translate(-1 -3)" fill="#2d54fe"/>
</svg>
