<svg xmlns="http://www.w3.org/2000/svg" width="49" height="46.677" viewBox="0 0 49 46.677">
  <g id="Grupo_1029221" data-name="Grupo 1029221" transform="translate(0 -12.136)">
    <g id="Grupo_1029220" data-name="Grupo 1029220" transform="translate(0 12.136)">
      <path id="Trazado_775162" data-name="Trazado 775162" d="M47.956,40.233a4.839,4.839,0,0,0-.974-2.917,4.862,4.862,0,0,0-2.847-8.806H33.077l1.539-5.316V20.647A8.521,8.521,0,0,0,26.1,12.136,2.066,2.066,0,0,0,24.041,14.2v5.646c-.812,1.3-5.536,6.578-10.5,11.9V27.564H0V57.875H13.54V55.683l4.789,1.8a20.892,20.892,0,0,0,7.36,1.335H41a4.862,4.862,0,0,0,3.891-7.781,4.858,4.858,0,0,0,1.043-6.859A4.86,4.86,0,0,0,47.956,40.233ZM10.669,55h-7.8V30.435h7.8ZM44.135,35.368H42.913v2.871h.179a1.993,1.993,0,1,1,0,3.987h-.855v0c-.063,0-.126,0-.189,0V45.1a1.993,1.993,0,0,1,0,3.987H41v2.871a1.993,1.993,0,0,1,0,3.987H25.689a18.031,18.031,0,0,1-6.352-1.152l-5.8-2.174V35.936c.982-1.042,3.66-3.894,6.312-6.8,7.06-7.75,7.06-8.3,7.06-8.994V15.065a5.649,5.649,0,0,1,4.833,5.583v2.14l-2.488,8.594H44.135a1.993,1.993,0,1,1,0,3.987Z" transform="translate(0 -12.136)" fill="#2d54fe"/>
    </g>
  </g>
</svg>
