<svg xmlns="http://www.w3.org/2000/svg" width="53.641" height="53.641" viewBox="0 0 53.641 53.641">
  <g id="Grupo_1029222" data-name="Grupo 1029222" transform="translate(0.5 0.5)">
    <path id="Trazado_775163" data-name="Trazado 775163" d="M50.489,22.18a3.513,3.513,0,0,1-1.168-4.359,5.058,5.058,0,0,0-4.14-7.171A3.512,3.512,0,0,1,41.99,7.459a5.058,5.058,0,0,0-7.171-4.14A3.513,3.513,0,0,1,30.46,2.151a5.058,5.058,0,0,0-8.28,0,3.513,3.513,0,0,1-4.359,1.168,5.058,5.058,0,0,0-7.171,4.14,3.512,3.512,0,0,1-3.191,3.191,5.058,5.058,0,0,0-4.14,7.171A3.512,3.512,0,0,1,2.152,22.18a5.058,5.058,0,0,0,0,8.28,3.513,3.513,0,0,1,1.168,4.359,5.058,5.058,0,0,0,4.14,7.171,3.512,3.512,0,0,1,3.191,3.191,5.058,5.058,0,0,0,7.171,4.14,3.513,3.513,0,0,1,4.359,1.168,5.058,5.058,0,0,0,8.28,0,3.513,3.513,0,0,1,4.359-1.168,5.058,5.058,0,0,0,7.171-4.14,3.512,3.512,0,0,1,3.191-3.191,5.058,5.058,0,0,0,4.14-7.171,3.512,3.512,0,0,1,1.168-4.359,5.058,5.058,0,0,0,0-8.28ZM49.6,29.2a5.053,5.053,0,0,0-1.68,6.272,3.516,3.516,0,0,1-2.878,4.984,5.053,5.053,0,0,0-4.591,4.591,3.516,3.516,0,0,1-4.984,2.878A5.053,5.053,0,0,0,29.2,49.6a3.516,3.516,0,0,1-5.755,0,5.053,5.053,0,0,0-6.272-1.68,3.516,3.516,0,0,1-4.984-2.878A5.053,5.053,0,0,0,7.6,40.453a3.516,3.516,0,0,1-2.878-4.984A5.053,5.053,0,0,0,3.037,29.2a3.516,3.516,0,0,1,0-5.755,5.053,5.053,0,0,0,1.68-6.272A3.516,3.516,0,0,1,7.6,12.187,5.053,5.053,0,0,0,12.187,7.6a3.516,3.516,0,0,1,4.984-2.878,5.054,5.054,0,0,0,6.272-1.68,3.516,3.516,0,0,1,5.755,0l.631-.443-.631.443a5.053,5.053,0,0,0,6.272,1.681A3.516,3.516,0,0,1,40.453,7.6a5.053,5.053,0,0,0,4.591,4.591,3.516,3.516,0,0,1,2.878,4.984,5.053,5.053,0,0,0,1.68,6.272,3.516,3.516,0,0,1,0,5.755Zm0,0" fill="#ffca00" stroke="#ffca00" stroke-width="1"/>
    <path id="Trazado_775164" data-name="Trazado 775164" d="M98.268,263.7a.771.771,0,0,0-.829.708,18.843,18.843,0,0,1-37.567,0,.771.771,0,0,0-1.537.121,20.386,20.386,0,0,0,40.642,0,.771.771,0,0,0-.708-.829Zm0,0" transform="translate(-52.335 -236.582)" fill="#ffca00" stroke="#ffca00" stroke-width="1"/>
    <path id="Trazado_775165" data-name="Trazado 775165" d="M59.042,77.322l.061,0a.771.771,0,0,0,.768-.71A18.844,18.844,0,0,1,97.437,76.6a.771.771,0,1,0,1.537-.123,20.386,20.386,0,0,0-40.64.017.771.771,0,0,0,.708.829Zm0,0" transform="translate(-52.334 -51.8)" fill="#ffca00" stroke="#ffca00" stroke-width="1"/>
    <path id="Trazado_775166" data-name="Trazado 775166" d="M150.375,129.549a1.731,1.731,0,0,0-1.58-1.2l-7.66-.349-2.7-7.178a1.745,1.745,0,0,0-3.266,0l-2.7,7.178-7.66.349a1.745,1.745,0,0,0-1.009,3.107l5.992,4.785-2.035,7.393a1.745,1.745,0,0,0,2.643,1.92l6.4-4.22,6.4,4.221a1.745,1.745,0,0,0,2.643-1.92l-2.035-7.393,5.992-4.785a1.73,1.73,0,0,0,.571-1.9Zm-1.533.7-6.389,5.1a.771.771,0,0,0-.262.807l2.17,7.883a.2.2,0,0,1-.307.223l-6.827-4.5a.771.771,0,0,0-.849,0l-6.827,4.5a.2.2,0,0,1-.307-.223l2.17-7.883a.771.771,0,0,0-.262-.807l-6.389-5.1a.2.2,0,0,1,.117-.361l8.168-.372a.77.77,0,0,0,.687-.5l2.878-7.654a.2.2,0,0,1,.379,0l2.878,7.654a.771.771,0,0,0,.687.5l8.168.372a.2.2,0,0,1,.117.361Zm0,0" transform="translate(-110.483 -107.383)" fill="#ffca00" stroke="#ffca00" stroke-width="1"/>
  </g>
</svg>
