<svg xmlns="http://www.w3.org/2000/svg" width="65.334" height="67.398" viewBox="0 0 65.334 67.398">
  <g id="Grupo_1028121" data-name="Grupo 1028121" transform="translate(-7.846)">
    <g id="Grupo_1028073" data-name="Grupo 1028073" transform="translate(13.646 1.315)">
      <path id="Trazado_773946" data-name="Trazado 773946" d="M148.734,387.62a3.612,3.612,0,0,1-4.755-1.041l-8.572-12.11,6.284-3.628,8.186,11.563A3.612,3.612,0,0,1,148.734,387.62Z" transform="translate(-124.417 -323.343)" fill="#fe502d"/>
      <path id="Trazado_773947" data-name="Trazado 773947" d="M207.2,389.064l3.586-2.07a1.242,1.242,0,0,1,1.638.361l1.92,2.731a1.243,1.243,0,0,1-.4,1.791l-3.393,1.959Z" transform="translate(-186.76 -337.225)" fill="#ffca00"/>
      <path id="Trazado_773948" data-name="Trazado 773948" d="M74.806,237.408l-11.195,6.463a4.36,4.36,0,0,1-5.955-1.6l-5.16-8.938a4.36,4.36,0,0,1,1.6-5.955l11.195-6.463Z" transform="translate(-51.911 -193.155)" fill="#ffca00"/>
      <path id="Trazado_773949" data-name="Trazado 773949" d="M273.261,52.847,249.279,11.31a2.638,2.638,0,1,0-4.57,2.638l23.982,41.537a2.638,2.638,0,1,0,4.57-2.638Z" transform="translate(-219.024 -9.99)" fill="#fff"/>
      <path id="Trazado_773950" data-name="Trazado 773950" d="M358.09,147.549a5.277,5.277,0,0,0-5.277-9.14Z" transform="translate(-313.206 -120.891)" fill="#ffca00"/>
      <path id="Trazado_773951" data-name="Trazado 773951" d="M189.75,82.277a31.647,31.647,0,0,0-26.7-1.122l-9.5-16.449a31.647,31.647,0,0,0,12.379-23.685Z" transform="translate(-140.173 -36.936)" fill="#2d54fe"/>
    </g>
    <g id="Grupo_1028074" data-name="Grupo 1028074" transform="translate(7.846 0)">
      <path id="Trazado_773952" data-name="Trazado 773952" d="M60.262,28.341A6.6,6.6,0,0,0,53.8,17.149L45.041,1.976A3.954,3.954,0,0,0,38.067,5.7,30.246,30.246,0,0,1,26.318,27.965L15.169,34.4a5.68,5.68,0,0,0-2.636,6.421L9.78,42.413a3.864,3.864,0,0,0-1.414,5.279l2.729,4.727a3.866,3.866,0,0,0,5.279,1.414l2.753-1.589A5.64,5.64,0,0,0,21.7,53.738a5.709,5.709,0,0,0,1.478.2,5.61,5.61,0,0,0,.856-.068l8.1,11.446a4.929,4.929,0,1,0,8.046-5.7L39.3,58.373l2.193-1.266a2.559,2.559,0,0,0,.814-3.688l-1.92-2.731a2.546,2.546,0,0,0-3.373-.744L34.4,51.452l-1.573-2.222s4.447-2.57,4.483-2.6a30.246,30.246,0,0,1,24.981,1.027,3.954,3.954,0,0,0,6.73-4.148Zm-3.345-8.763a3.96,3.96,0,0,1,1.982,6.4l-3.736-6.471A3.946,3.946,0,0,1,56.917,19.577ZM15.057,51.553a1.233,1.233,0,0,1-1.683-.451l-2.729-4.727a1.232,1.232,0,0,1,.451-1.683l2.594-1.5,3.961,6.86ZM38.4,62.955a2.3,2.3,0,0,1-4.117.835L26.545,52.859l3.994-2.306,7.492,10.584a2.272,2.272,0,0,1,.369,1.818Zm-.128-10.7,1.835,2.61-2.334,1.348-1.844-2.6ZM24.688,50.891a3.043,3.043,0,0,1-4.157-1.114l-5.16-8.937a3.043,3.043,0,0,1,1.114-4.157L26.54,30.877l8.2,14.209Zm41.571-4.255a1.324,1.324,0,0,1-1.806-.484L55.424,30.514a1.316,1.316,0,0,0-2.28,1.316l6.929,12a32.834,32.834,0,0,0-22.979.059l-8.36-14.48A32.833,32.833,0,0,0,40.274,9.539l6.95,12.038A1.316,1.316,0,1,0,49.5,20.26L40.471,4.615a1.322,1.322,0,1,1,2.29-1.322L66.743,44.83a1.324,1.324,0,0,1-.484,1.806Z" transform="translate(-7.846 0)"/>
      <path id="Trazado_773953" data-name="Trazado 773953" d="M433.614,108.686a1.311,1.311,0,0,0,.657-.177l5.685-3.282a1.316,1.316,0,0,0-1.316-2.28l-5.685,3.282a1.316,1.316,0,0,0,.659,2.456Z" transform="translate(-376.426 -89.243)"/>
      <path id="Trazado_773954" data-name="Trazado 773954" d="M384.607,54.849a1.314,1.314,0,0,0,1.612-.931l1.549-5.78a1.316,1.316,0,0,0-2.543-.681l-1.549,5.78A1.316,1.316,0,0,0,384.607,54.849Z" transform="translate(-334.167 -40.362)"/>
      <path id="Trazado_773955" data-name="Trazado 773955" d="M447.714,190.1l-5.78-1.549a1.316,1.316,0,1,0-.681,2.543l5.78,1.549a1.316,1.316,0,1,0,.681-2.543Z" transform="translate(-383.356 -163.692)"/>
      <circle id="Elipse_8710" data-name="Elipse 8710" cx="1.316" cy="1.316" r="1.316" transform="translate(42.14 24.737)"/>
    </g>
  </g>
</svg>
