<svg xmlns="http://www.w3.org/2000/svg" width="65.125" height="64.544" viewBox="0 0 65.125 64.544">
  <g id="Grupo_1028117" data-name="Grupo 1028117" transform="translate(29.79 26.497)">
    <circle id="Elipse_8711" data-name="Elipse 8711" cx="5.302" cy="5.302" r="5.302" transform="translate(-26.919 25.321)" fill="#2d54fe"/>
    <path id="Trazado_773977" data-name="Trazado 773977" d="M20.507,155.528a7.408,7.408,0,0,0-2.774-5.778c1.906-3.52,5.357-5.514,9.02-7.6a33.165,33.165,0,0,0,7.531-5.263,20.53,20.53,0,0,0,1.98-2.25,24.045,24.045,0,0,0,4.542-12.844,10.2,10.2,0,0,0-.934-5.238l3.491,1.746.949-1.9-6.363-3.181a1.06,1.06,0,0,0-1.479.613L34.349,120.2l2.011.671,1.318-3.955c.1.2.193.384.269.526a7.806,7.806,0,0,1,.74,4.256,21.9,21.9,0,0,1-4.14,11.7,18.829,18.829,0,0,1-1.781,2.012,31.048,31.048,0,0,1-7.063,4.9c-3.746,2.132-7.59,4.355-9.791,8.361a7.422,7.422,0,1,0,4.594,6.861Zm-7.423-5.3a5.3,5.3,0,1,1-5.3,5.3A5.308,5.308,0,0,1,13.084,150.226Z" transform="translate(-34.701 -124.905)" fill="#11222b"/>
    <circle id="Elipse_8712" data-name="Elipse 8712" cx="5.302" cy="5.302" r="5.302" transform="translate(2.774 14.716)" fill="#ffc408"/>
    <path id="Trazado_773978" data-name="Trazado 773978" d="M237.084,297.106a7.423,7.423,0,1,0,7.423,7.423A7.433,7.433,0,0,0,237.084,297.106Zm0,12.725a5.3,5.3,0,1,1,5.3-5.3A5.308,5.308,0,0,1,237.084,309.831Z" transform="translate(-229.008 -284.51)" fill="#11222b"/>
    <path id="Trazado_775228" data-name="Trazado 775228" d="M5.3,0A5.3,5.3,0,1,1,0,5.3,5.3,5.3,0,0,1,5.3,0Z" transform="translate(15.499 -4.372)" fill="#2d54fe"/>
    <path id="Trazado_773979" data-name="Trazado 773979" d="M333.084,167.952a7.423,7.423,0,1,0-7.423-7.423A7.433,7.433,0,0,0,333.084,167.952Zm0-12.725a5.3,5.3,0,1,1-5.3,5.3A5.308,5.308,0,0,1,333.084,155.227Z" transform="translate(-312.283 -159.599)" fill="#11222b"/>
    <circle id="Elipse_8714" data-name="Elipse 8714" cx="5.302" cy="5.302" r="5.302" transform="translate(-21.617 -6.493)" fill="#ffc408"/>
    <g id="Grupo_1028080" data-name="Grupo 1028080" transform="translate(-23.738 -26.497)">
      <path id="Trazado_773980" data-name="Trazado 773980" d="M53.084,151.952a7.423,7.423,0,1,0-7.423-7.423A7.433,7.433,0,0,0,53.084,151.952Zm0-12.725a5.3,5.3,0,1,1-5.3,5.3A5.308,5.308,0,0,1,53.084,139.227Z" transform="translate(-45.661 -119.222)" fill="#11222b"/>
      <path id="Trazado_773981" data-name="Trazado 773981" d="M177.613,3.468c.3.4.689.978,1.128,1.673l1.793-1.133c-.475-.753-.889-1.364-1.228-1.814Z" transform="translate(-160.122 -2.194)" fill="#11222b"/>
      <path id="Trazado_773982" data-name="Trazado 773982" d="M194.325,30.863c.341.581.694,1.194,1.046,1.822l1.849-1.038c-.358-.641-.719-1.267-1.069-1.861Z" transform="translate(-174.619 -26.128)" fill="#11222b"/>
      <path id="Trazado_773983" data-name="Trazado 773983" d="M209.837,59.032c.336.632.665,1.26.972,1.864l1.891-.961c-.314-.617-.648-1.258-.994-1.9Z" transform="translate(-188.074 -50.632)" fill="#11222b"/>
      <path id="Trazado_773984" data-name="Trazado 773984" d="M226.9,89.024c-.2-.547-.5-1.229-.868-2.03l-1.922.9c.349.749.619,1.38.8,1.875Z" transform="translate(-200.454 -75.753)" fill="#11222b"/>
    </g>
    <g id="Grupo_1028084" data-name="Grupo 1028084" transform="translate(-34.343 -30.881)">
      <g id="Grupo_1028081" data-name="Grupo 1028081" transform="translate(53.023 51.96) rotate(-45)">
        <rect id="Rectángulo_360982" data-name="Rectángulo 360982" width="2.121" height="14.995" transform="translate(6.438 0)" fill="#fe502d"/>
        <rect id="Rectángulo_360983" data-name="Rectángulo 360983" width="14.995" height="2.121" transform="translate(0 6.438)" fill="#fe502d"/>
      </g>
      <g id="Grupo_1028082" data-name="Grupo 1028082" transform="translate(0 10.603) rotate(-45)">
        <rect id="Rectángulo_360984" data-name="Rectángulo 360984" width="2.121" height="14.995" transform="translate(6.438 0)" fill="#fe502d"/>
        <rect id="Rectángulo_360985" data-name="Rectángulo 360985" width="14.995" height="2.121" transform="translate(0 6.438)" fill="#fe502d"/>
      </g>
      <g id="Grupo_1028083" data-name="Grupo 1028083" transform="translate(48.783 15.905) rotate(-45)">
        <rect id="Rectángulo_360986" data-name="Rectángulo 360986" width="2.121" height="14.995" transform="translate(6.438 0)" fill="#fe502d"/>
        <rect id="Rectángulo_360987" data-name="Rectángulo 360987" width="14.995" height="2.121" transform="translate(0 6.438)" fill="#fe502d"/>
      </g>
    </g>
  </g>
</svg>
