<svg xmlns="http://www.w3.org/2000/svg" width="73.563" height="73.535" viewBox="0 0 73.563 73.535">
  <g id="Grupo_1029255" data-name="Grupo 1029255" transform="translate(-7.818 -8)">
    <circle id="Elipse_8726" data-name="Elipse 8726" cx="7.694" cy="7.694" r="7.694" transform="translate(9.039 57.324)" fill="#d9e1e6"/>
    <path id="Trazado_775207" data-name="Trazado 775207" d="M178.093,19.558h-7.116V16H152V36.163h30.838V25.488Z" transform="translate(-122.806 -6.814)" fill="#ffca00"/>
    <path id="Trazado_775209" data-name="Trazado 775209" d="M280,40h7.116l4.744,5.93V56.6H280Z" transform="translate(-231.829 -27.256)" fill="#d9e1e6"/>
    <path id="Trazado_775210" data-name="Trazado 775210" d="M287.116,40h-.474l2.327,2.908a2.373,2.373,0,0,1,.52,1.48v7.472a2.372,2.372,0,0,1-2.372,2.372H280V56.6h11.861V45.93Z" transform="translate(-231.829 -27.256)" fill="#c0c8cc"/>
    <path id="Trazado_775211" data-name="Trazado 775211" d="M312.3,45.93H304V40h3.558Z" transform="translate(-252.271 -27.256)" fill="#c9e6fb"/>
    <path id="Trazado_775212" data-name="Trazado 775212" d="M307.558,40h-.474l1.3,1.631a1.186,1.186,0,0,1-.926,1.927H304V45.93h8.3Z" transform="translate(-252.271 -27.256)" fill="#b0dcfb"/>
    <circle id="Elipse_8727" data-name="Elipse 8727" cx="2.386" cy="2.386" r="2.386" transform="translate(33.883 26.881)" fill="#515f73"/>
    <circle id="Elipse_8728" data-name="Elipse 8728" cx="2.386" cy="2.386" r="2.386" transform="translate(51.668 26.881)" fill="#515f73"/>
    <path id="Trazado_775214" data-name="Trazado 775214" d="M117.927,445.557l2.967-2.967,4.945,4.945-2.967,2.967Z" transform="translate(-93.784 -370.159)" fill="#8197bf"/>
    <path id="Trazado_775215" data-name="Trazado 775215" d="M384,414.233V403.558A3.558,3.558,0,0,1,387.558,400h9.489a3.558,3.558,0,0,1,3.558,3.558v10.675Z" transform="translate(-320.41 -333.883)" fill="#2d54fe"/>
    <circle id="Elipse_8729" data-name="Elipse 8729" cx="4.121" cy="4.121" r="4.121" transform="translate(67.717 56.594)" fill="#ffdbac"/>
    <path id="Trazado_775216" data-name="Trazado 775216" d="M203.81,226.674a8.3,8.3,0,0,0-.084-1.173.991.991,0,0,1,.528-1l.621-.343a1,1,0,0,0,.419-1.354q-.012-.024-.026-.047l-1.72-2.847a1.1,1.1,0,0,0-1.465-.375l-.629.346a1.137,1.137,0,0,1-1.22-.1,9.119,9.119,0,0,0-2.007-1.114,1.056,1.056,0,0,1-.7-.961v-.687A1.05,1.05,0,0,0,196.461,216h-3.44a1.05,1.05,0,0,0-1.067,1.025v.687a1.056,1.056,0,0,1-.7.961,9.12,9.12,0,0,0-2.007,1.114,1.137,1.137,0,0,1-1.22.1l-.629-.346a1.1,1.1,0,0,0-1.465.375l-1.72,2.847a1,1,0,0,0,.346,1.374l.047.026.621.343a.991.991,0,0,1,.528,1,8.217,8.217,0,0,0,0,2.346.991.991,0,0,1-.528,1l-.621.343a1,1,0,0,0-.419,1.354q.012.024.026.047l1.72,2.847a1.1,1.1,0,0,0,1.465.375l.629-.346a1.137,1.137,0,0,1,1.22.1,9.119,9.119,0,0,0,2.007,1.114,1.056,1.056,0,0,1,.7.961v.687a1.05,1.05,0,0,0,1.067,1.025h3.44a1.05,1.05,0,0,0,1.067-1.025v-.687a1.056,1.056,0,0,1,.7-.961,9.118,9.118,0,0,0,2.007-1.114,1.137,1.137,0,0,1,1.22-.1l.629.346a1.1,1.1,0,0,0,1.465-.375l1.72-2.847a1,1,0,0,0-.346-1.374l-.047-.026-.621-.343a.991.991,0,0,1-.528-1,8.3,8.3,0,0,0,.084-1.173Z" transform="translate(-150.124 -177.161)" fill="#fe502d"/>
    <circle id="Elipse_8730" data-name="Elipse 8730" cx="3.579" cy="3.579" r="3.579" transform="translate(41.041 45.967)" fill="#d9e1e6"/>
    <path id="Trazado_775217" data-name="Trazado 775217" d="M23.314,352.612l4.946,4.946a1.186,1.186,0,0,0,1.677,0l2.965-2.965a1.186,1.186,0,0,0,0-1.677l-4.946-4.946a1.22,1.22,0,0,0-1.677,0l-.643.643-1.848-1.848a8.9,8.9,0,1,0-1.676,1.677l1.847,1.848-.645.645a1.186,1.186,0,0,0,0,1.677Zm3.806-2.135,3.269,3.277-1.29,1.29-3.269-3.271Zm-5.784-4.494a6.191,6.191,0,1,1,.068-.062l-.068.068Z" transform="translate(0 -276.37)"/>
    <path id="Trazado_775218" data-name="Trazado 775218" d="M390.233,337.3H388.8a5.337,5.337,0,1,0-6.628,0h-1.43A4.744,4.744,0,0,0,376,342.044v10.675a1.186,1.186,0,0,0,1.186,1.186h16.6a1.186,1.186,0,0,0,1.186-1.186V342.044a4.744,4.744,0,0,0-4.744-4.744Zm-4.744-7.116a2.965,2.965,0,1,1-2.965,2.965A2.965,2.965,0,0,1,385.488,330.183Zm7.116,21.349H378.372v-9.488a2.372,2.372,0,0,1,2.372-2.372h9.488a2.372,2.372,0,0,1,2.372,2.372Z" transform="translate(-313.596 -272.369)"/>
    <path id="Trazado_775219" data-name="Trazado 775219" d="M56.422,111.632a30.845,30.845,0,0,0-7.45,30.041L51.247,141a28.475,28.475,0,0,1,6.879-27.721Z" transform="translate(-34.011 -88.268)"/>
    <path id="Trazado_775220" data-name="Trazado 775220" d="M221.184,426.671l-1.141-2.079a28.553,28.553,0,0,1-13.7,3.506,28.138,28.138,0,0,1-7.932-1.126l-.669,2.276a30.5,30.5,0,0,0,8.6,1.222,30.922,30.922,0,0,0,14.839-3.8Z" transform="translate(-161.768 -354.829)"/>
    <path id="Trazado_775221" data-name="Trazado 775221" d="M403.639,140.959a30.315,30.315,0,0,0,.9-7.37,30.63,30.63,0,0,0-8.6-21.349l-1.71,1.645a28.268,28.268,0,0,1,7.936,19.7,27.97,27.97,0,0,1-.83,6.791Z" transform="translate(-329.125 -88.786)"/>
    <path id="Trazado_775222" data-name="Trazado 775222" d="M181.113,228.034l.575-.327a10.517,10.517,0,0,0,2.22,1.239v.563a2.238,2.238,0,0,0,2.259,2.211h3.44a2.238,2.238,0,0,0,2.259-2.211v-.565a8.422,8.422,0,0,0,2.167-1.257l.629.346a2.3,2.3,0,0,0,3.052-.8l1.721-2.847a2.16,2.16,0,0,0,.237-1.687,2.2,2.2,0,0,0-1.076-1.364l-.527-.291a9.272,9.272,0,0,0,0-2.372l.528-.292a2.2,2.2,0,0,0,1.076-1.364,2.159,2.159,0,0,0-.237-1.688l-1.719-2.847a2.293,2.293,0,0,0-3.053-.8l-.575.327a10.5,10.5,0,0,0-2.22-1.239v-.563A2.238,2.238,0,0,0,189.606,208h-3.44a2.238,2.238,0,0,0-2.254,2.211v.565a8.418,8.418,0,0,0-2.167,1.257l-.629-.346a2.3,2.3,0,0,0-3.052.8l-1.721,2.847a2.16,2.16,0,0,0-.237,1.687,2.2,2.2,0,0,0,1.076,1.364l.528.292a9.258,9.258,0,0,0,0,2.372l-.528.292a2.2,2.2,0,0,0-1.076,1.364,2.159,2.159,0,0,0,.237,1.688l1.719,2.847a2.3,2.3,0,0,0,3.051.8ZM180,219.86a6.9,6.9,0,0,1,.074-1,2.189,2.189,0,0,0-1.13-2.2l-.474-.259,1.566-2.59.559.307a2.332,2.332,0,0,0,2.491-.18,7.962,7.962,0,0,1,1.746-.97,2.232,2.232,0,0,0,1.445-2.061v-.525h3.212v.525a2.233,2.233,0,0,0,1.443,2.061,7.989,7.989,0,0,1,1.754.971,2.331,2.331,0,0,0,2.491.181l.559-.307,1.566,2.59-.474.259a2.186,2.186,0,0,0-1.13,2.206,7.032,7.032,0,0,1,.081,1,6.907,6.907,0,0,1-.074,1,2.189,2.189,0,0,0,1.13,2.2l.474.259-1.566,2.59-.559-.307a2.333,2.333,0,0,0-2.491.18,7.968,7.968,0,0,1-1.746.97,2.232,2.232,0,0,0-1.445,2.061v.525h-3.219v-.525a2.233,2.233,0,0,0-1.443-2.061,7.987,7.987,0,0,1-1.747-.971,2.331,2.331,0,0,0-2.491-.181l-.559.307-1.566-2.59.474-.259a2.186,2.186,0,0,0,1.13-2.206,7.033,7.033,0,0,1-.081-1Z" transform="translate(-143.274 -170.348)"/>
    <path id="Trazado_775223" data-name="Trazado 775223" d="M228.744,265.488A4.744,4.744,0,1,0,224,260.744,4.744,4.744,0,0,0,228.744,265.488Zm0-7.116a2.372,2.372,0,1,1-2.372,2.372A2.372,2.372,0,0,1,228.744,258.372Z" transform="translate(-184.131 -211.232)"/>
    <path id="Trazado_775224" data-name="Trazado 775224" d="M120,40h5.93v2.372H120Z" transform="translate(-95.55 -27.256)"/>
    <path id="Trazado_775225" data-name="Trazado 775225" d="M136,72h5.93v2.372H136Z" transform="translate(-109.178 -54.512)"/>
    <path id="Trazado_775226" data-name="Trazado 775226" d="M172.206,12a1.186,1.186,0,0,0-.926-.445h-5.93V9.186A1.186,1.186,0,0,0,164.163,8H145.186A1.186,1.186,0,0,0,144,9.186v2.372h2.372V10.372h16.6V28.163h-7.335a3.537,3.537,0,0,0-6.68,0h-2.59V21.047H144v8.3a1.186,1.186,0,0,0,1.186,1.186h3.776a3.537,3.537,0,0,0,6.68,0h11.111a3.537,3.537,0,0,0,6.68,0h2.59a1.186,1.186,0,0,0,1.186-1.186V18.675a1.186,1.186,0,0,0-.26-.741ZM152.3,30.535a1.186,1.186,0,1,1,1.186-1.186A1.186,1.186,0,0,1,152.3,30.535Zm16.6-16.6h1.8l2.847,3.558h-4.649Zm1.186,16.6a1.186,1.186,0,1,1,1.186-1.186A1.186,1.186,0,0,1,170.093,30.535Zm4.744-2.372h-1.4a3.537,3.537,0,0,0-6.68,0h-1.4V13.93h1.186v4.744a1.186,1.186,0,0,0,1.186,1.186h7.116Z" transform="translate(-115.992)"/>
  </g>
</svg>
