<svg xmlns="http://www.w3.org/2000/svg" width="163.241" height="163.241" viewBox="0 0 163.241 163.241">
  <g id="Grupo_1034319" data-name="Grupo 1034319" transform="translate(-451.236 -123.594)">
    <path id="Trazado_775096" data-name="Trazado 775096" d="M1558.734,466.869a79.934,79.934,0,1,1-79.934-79.934,79.934,79.934,0,0,1,79.934,79.934" transform="translate(-945.943 -261.654)" fill="#fff"/>
    <g id="Grupo_1034320" data-name="Grupo 1034320">
      <path id="Trazado_775098" data-name="Trazado 775098" d="M1572.443,493.174a67.34,67.34,0,1,1-67.34-67.34,67.34,67.34,0,0,1,67.34,67.34" transform="translate(-972.246 -287.959)" fill="#fff"/>
      <g id="Grupo_1034319-2" data-name="Grupo 1034319">
        <path id="Trazado_775097" data-name="Trazado 775097" d="M1475.278,544.968a81.621,81.621,0,1,1,81.62-81.62,81.713,81.713,0,0,1-81.62,81.62m0-159.868a78.248,78.248,0,1,0,78.248,78.248,78.337,78.337,0,0,0-78.248-78.248" transform="translate(-942.421 -258.133)" fill="#2d54fe"/>
        <path id="Trazado_775099" data-name="Trazado 775099" d="M1501.582,558.678a69.026,69.026,0,1,1,69.025-69.026,69.1,69.1,0,0,1-69.025,69.026m0-134.68a65.654,65.654,0,1,0,65.653,65.654A65.728,65.728,0,0,0,1501.582,424" transform="translate(-968.725 -284.437)" fill="#fe502d"/>
        <path id="Trazado_775100" data-name="Trazado 775100" d="M1586.294,617.473,1577.4,592.4h6.5l6.216,19.111,6.215-19.111h6.5l-8.895,25.077Z" transform="translate(-1066.671 -400.593)" fill="#fe502d"/>
        <path id="Trazado_775101" data-name="Trazado 775101" d="M1672.381,596.117a2.838,2.838,0,0,0-1.875.607,2.144,2.144,0,0,0-.732,1.75,2.521,2.521,0,0,0,.679,1.839,4.425,4.425,0,0,0,1.768,1.072q1.09.375,2.43.715a27.616,27.616,0,0,1,2.661.821,11.689,11.689,0,0,1,2.411,1.2,5.245,5.245,0,0,1,1.768,2.018,6.689,6.689,0,0,1,.679,3.125,7,7,0,0,1-2.59,5.448,9.981,9.981,0,0,1-6.823,2.269,10.729,10.729,0,0,1-6.823-2.036,6.933,6.933,0,0,1-2.589-5.787h6.5q.25,3,3.072,3a2.929,2.929,0,0,0,2.072-.7,2.309,2.309,0,0,0,.75-1.768,2.37,2.37,0,0,0-.679-1.75,4.736,4.736,0,0,0-1.768-1.072q-1.09-.392-2.429-.732a24.534,24.534,0,0,1-2.661-.84,13.019,13.019,0,0,1-2.412-1.2,5.1,5.1,0,0,1-1.768-2,6.6,6.6,0,0,1-.678-3.09,6.849,6.849,0,0,1,2.607-5.609,10.263,10.263,0,0,1,6.662-2.107,10.793,10.793,0,0,1,6.554,1.84q2.5,1.84,2.608,5.8h-6.644a3.353,3.353,0,0,0-.875-2.09,2.542,2.542,0,0,0-1.875-.732" transform="translate(-1124.789 -399.847)" fill="#2d54fe"/>
      </g>
    </g>
  </g>
</svg>
